<svg width="1594" height="803" viewBox="0 0 1594 803" fill="none" xmlns="http://www.w3.org/2000/svg">
<mask id="mask0_54_3482" style="mask-type:luminance" maskUnits="userSpaceOnUse" x="-4" y="154" width="1608" height="326">
<path d="M1603.24 154.344H-3.75684V479.344H1603.24V154.344Z" fill="white"/>
</mask>
<g mask="url(#mask0_54_3482)">
<path d="M1603.24 154.344H-3.75684V479.344H1603.24V154.344Z" fill="#080F0F"/>
</g>
<mask id="mask1_54_3482" style="mask-type:luminance" maskUnits="userSpaceOnUse" x="-4" y="154" width="991" height="451">
<path d="M986.243 154.344H-3.75684V604.344H986.243V154.344Z" fill="white"/>
</mask>
<g mask="url(#mask1_54_3482)">
<path d="M101.483 197.365C114.986 197.365 125.972 208.351 125.972 221.854C125.972 222.491 125.948 223.126 125.899 223.756C132.205 225.823 136.773 231.765 136.773 238.755C136.773 247.455 129.695 254.534 120.994 254.534H38.3001C30.9421 254.534 24.9551 248.548 24.9551 241.189C24.9551 234.439 29.9931 228.843 36.5061 227.964C38.2061 219.432 45.7541 212.982 54.7781 212.982C57.8181 212.982 60.7691 213.73 63.3971 215.105C66.4661 211.834 70.8211 209.823 75.5441 209.823C77.0321 209.823 78.4881 210.016 79.8841 210.391C84.0501 202.608 92.2971 197.365 101.483 197.365Z" fill="white"/>
</g>
<mask id="mask2_54_3482" style="mask-type:luminance" maskUnits="userSpaceOnUse" x="-4" y="154" width="1608" height="326">
<path d="M1603.24 154.344H-3.75684V479.344H1603.24V154.344Z" fill="white"/>
</mask>
<g mask="url(#mask2_54_3482)">
<path d="M1603.24 479.344H-3.75684V290.13C748.097 225.128 1263.21 246.866 1603.24 278.492V479.344Z" fill="#A52422"/>
</g>
<mask id="mask3_54_3482" style="mask-type:luminance" maskUnits="userSpaceOnUse" x="-4" y="154" width="1608" height="326">
<path d="M1603.24 154.344H-3.75684V479.344H1603.24V154.344Z" fill="white"/>
</mask>
<g mask="url(#mask3_54_3482)">
<path d="M1603.24 479.344H-3.75684V346.888C408.669 359.335 983.831 233.871 1603.24 338.547V479.344Z" fill="#DAEDEA"/>
</g>
<mask id="mask4_54_3482" style="mask-type:luminance" maskUnits="userSpaceOnUse" x="-4" y="154" width="991" height="451">
<path d="M986.243 154.344H-3.75684V604.344H986.243V154.344Z" fill="white"/>
</mask>
<g mask="url(#mask4_54_3482)">
<path d="M571.971 438.492H569.35L569.419 434.247L569.598 422.777L569.658 418.891L569.936 401.311L570.038 394.843L570.222 383.027H571.099L571.283 394.843L571.385 401.311L571.663 418.891L571.723 422.777L571.838 429.968L571.971 438.492Z" fill="#0F1241"/>
<path d="M571.971 438.492H569.35L569.418 434.247C570.639 433.569 571.663 432.279 571.838 429.968L571.971 438.492Z" fill="#38A9AF"/>
<path d="M551.312 395.07C562.765 393.175 567.644 384.881 567.644 384.881C567.644 384.881 558.049 385.617 551.312 395.07Z" fill="#0F1241"/>
<path d="M552.504 394.459C552.469 394.459 552.434 394.441 552.413 394.409C552.382 394.359 552.397 394.293 552.447 394.262L567.333 384.975C567.383 384.945 567.449 384.959 567.48 385.009C567.511 385.059 567.496 385.125 567.446 385.156L552.56 394.443C552.543 394.453 552.523 394.459 552.504 394.459Z" fill="#38A9AF"/>
<path d="M570.66 360.194C575.114 370.914 570.66 379.444 570.66 379.444C570.66 379.444 566.206 370.913 570.66 360.194Z" fill="#0F1241"/>
<path d="M570.661 379.542C570.606 379.542 570.562 379.498 570.562 379.444V363.264C570.562 363.21 570.606 363.165 570.661 363.165C570.715 363.165 570.76 363.209 570.76 363.264V379.444C570.759 379.498 570.715 379.542 570.661 379.542Z" fill="#38A9AF"/>
<path d="M590.009 395.07C578.556 393.175 573.676 384.881 573.676 384.881C573.676 384.881 583.272 385.617 590.009 395.07Z" fill="#0F1241"/>
<path d="M587.403 393.543C587.385 393.543 587.367 393.538 587.351 393.528L573.625 384.964C573.579 384.935 573.565 384.875 573.593 384.828C573.622 384.781 573.683 384.767 573.729 384.796L587.456 393.36C587.502 393.389 587.516 393.449 587.487 393.496C587.469 393.527 587.436 393.543 587.403 393.543Z" fill="#38A9AF"/>
<path d="M571.645 437.539H569.677C568.638 437.539 567.796 438.381 567.796 439.42V440.295H573.527V439.42C573.526 438.381 572.684 437.539 571.645 437.539Z" fill="#0F1241"/>
<path d="M571.385 401.311H569.936L570.038 394.843H571.283L571.385 401.311Z" fill="#38A9AF"/>
<path d="M571.723 422.777H569.598L569.658 418.891H571.663L571.723 422.777Z" fill="#38A9AF"/>
<path d="M571.385 379.169H569.936V382.403H571.385V379.169Z" fill="#38A9AF"/>
<path d="M573.562 385.703L574.329 384.473L571.585 382.762L570.818 383.991L573.562 385.703Z" fill="#38A9AF"/>
<path d="M570.499 383.952L569.732 382.723L566.989 384.434L567.756 385.664L570.499 383.952Z" fill="#38A9AF"/>
<path d="M571.97 383.024C571.97 383.747 571.384 384.334 570.66 384.334C569.937 384.334 569.35 383.748 569.35 383.024C569.35 382.301 569.936 381.714 570.66 381.714C571.384 381.715 571.97 382.301 571.97 383.024Z" fill="#0F1241"/>
</g>
<mask id="mask5_54_3482" style="mask-type:luminance" maskUnits="userSpaceOnUse" x="-4" y="154" width="991" height="451">
<path d="M986.243 154.344H-3.75684V604.344H986.243V154.344Z" fill="white"/>
</mask>
<g mask="url(#mask5_54_3482)">
<path d="M540.484 442.025H538.147L538.208 438.24L538.368 428.015L538.422 424.551L538.67 408.879L538.761 403.113L538.925 392.579H539.706L539.87 403.113L539.962 408.879L540.209 424.551L540.263 428.015L540.365 434.425L540.484 442.025Z" fill="#0F1241"/>
<path d="M540.484 442.025H538.148L538.209 438.241C539.298 437.636 540.21 436.487 540.366 434.426L540.484 442.025Z" fill="#38A9AF"/>
<path d="M540.193 441.175H538.438C537.512 441.175 536.761 441.926 536.761 442.852V443.632H541.87V442.852C541.87 441.926 541.119 441.175 540.193 441.175Z" fill="#0F1241"/>
<path d="M539.962 408.879H538.67L538.761 403.113H539.87L539.962 408.879Z" fill="#38A9AF"/>
<path d="M540.263 428.015H538.368L538.422 424.551H540.209L540.263 428.015Z" fill="#38A9AF"/>
<path d="M518.998 392.442C528.531 396.467 536.158 392.54 536.158 392.54C536.158 392.54 528.577 388.526 518.998 392.442Z" fill="#0F1241"/>
<path d="M520.187 392.549C520.16 392.532 520.143 392.502 520.143 392.468C520.143 392.416 520.186 392.373 520.239 392.373L535.88 392.463C535.932 392.464 535.975 392.506 535.974 392.559C535.974 392.611 535.931 392.654 535.878 392.653L520.237 392.563C520.219 392.563 520.202 392.558 520.187 392.549Z" fill="#38A9AF"/>
<path d="M550.187 375.371C548.439 385.571 541.021 389.878 541.021 389.878C541.021 389.878 541.726 381.329 550.187 375.371Z" fill="#0F1241"/>
<path d="M540.974 389.953C540.933 389.927 540.921 389.873 540.947 389.832L548.651 377.639C548.677 377.598 548.731 377.586 548.772 377.612C548.813 377.638 548.825 377.692 548.799 377.733L541.095 389.926C541.069 389.967 541.015 389.979 540.974 389.953Z" fill="#38A9AF"/>
<path d="M548.162 410.869C540.433 403.987 540.705 395.413 540.705 395.413C540.705 395.413 547.585 400.536 548.162 410.869Z" fill="#0F1241"/>
<path d="M546.925 408.477C546.912 408.469 546.9 408.457 546.893 408.441L540.626 395.45C540.605 395.406 540.623 395.354 540.667 395.333C540.711 395.312 540.764 395.33 540.784 395.374L547.051 408.365C547.072 408.409 547.054 408.461 547.01 408.482C546.982 408.496 546.95 408.493 546.925 408.477Z" fill="#38A9AF"/>
<path d="M541.693 390.045L540.601 389.355L539.06 391.792L540.153 392.482L541.693 390.045Z" fill="#38A9AF"/>
<path d="M540.241 395.98L541.404 395.418L540.151 392.822L538.988 393.384L540.241 395.98Z" fill="#38A9AF"/>
<path d="M538.77 393.236L538.777 391.944L535.894 391.928L535.887 393.22L538.77 393.236Z" fill="#38A9AF"/>
<path d="M540.303 393.201C539.959 393.746 539.237 393.909 538.692 393.564C538.147 393.22 537.984 392.498 538.329 391.953C538.673 391.408 539.395 391.245 539.94 391.59C540.484 391.935 540.647 392.656 540.303 393.201Z" fill="#0F1241"/>
</g>
<mask id="mask6_54_3482" style="mask-type:luminance" maskUnits="userSpaceOnUse" x="-4" y="154" width="1608" height="326">
<path d="M1603.24 154.344H-3.75684V479.344H1603.24V154.344Z" fill="white"/>
</mask>
<g mask="url(#mask6_54_3482)">
<path d="M1603.24 360.829C858.074 325.347 749.053 402.02 -3.75684 360.829V479.344H1603.24V360.829Z" fill="#B8D0CD"/>
</g>
<mask id="mask7_54_3482" style="mask-type:luminance" maskUnits="userSpaceOnUse" x="-4" y="154" width="1608" height="326">
<path d="M1596.24 154.344H3.24316C-0.622829 154.344 -3.75684 157.478 -3.75684 161.344V472.344C-3.75684 476.21 -0.62279 479.344 3.2432 479.344H1596.24C1600.11 479.344 1603.24 476.21 1603.24 472.344V161.344C1603.24 157.478 1600.11 154.344 1596.24 154.344Z" fill="white"/>
</mask>
<g mask="url(#mask7_54_3482)">
<path d="M-3.75684 420.086C475.063 379.416 830.156 476.999 1603.24 420.086V479.344H-3.75684V420.086Z" fill="#A4BAB7"/>
</g>
<mask id="mask8_54_3482" style="mask-type:luminance" maskUnits="userSpaceOnUse" x="-4" y="154" width="991" height="451">
<path d="M986.243 154.344H-3.75684V604.344H986.243V154.344Z" fill="white"/>
</mask>
<g mask="url(#mask8_54_3482)">
<path d="M83.305 447.964H75.833L76.029 435.861L76.54 403.159L76.711 392.079L77.503 341.959L77.796 323.518L78.32 289.829H80.819L81.343 323.518L81.635 341.959L82.428 392.079L82.598 403.159L82.927 423.66L83.305 447.964Z" fill="#EFF2C0"/>
<path d="M83.305 447.964H75.833L76.028 435.861C79.51 433.927 82.428 430.251 82.927 423.66L83.305 447.964Z" fill="#BEA57D"/>
<path d="M24.4053 324.165C57.0573 318.762 70.9703 295.115 70.9703 295.115C70.9703 295.115 43.6143 297.214 24.4053 324.165Z" fill="#080F0F"/>
<path d="M27.8033 322.422C27.7023 322.422 27.6023 322.371 27.5453 322.278C27.4563 322.136 27.4993 321.948 27.6423 321.859L70.0833 295.382C70.2263 295.295 70.4143 295.337 70.5023 295.48C70.5913 295.622 70.5483 295.81 70.4053 295.899L27.9643 322.376C27.9143 322.407 27.8593 322.422 27.8033 322.422Z" fill="#EFF2C0"/>
<path d="M79.5693 224.73C92.2683 255.293 79.5693 279.613 79.5693 279.613C79.5693 279.613 66.8713 255.293 79.5693 224.73Z" fill="#080F0F"/>
<path d="M79.5691 279.895C79.4141 279.895 79.2881 279.769 79.2881 279.614V233.485C79.2881 233.33 79.4141 233.204 79.5691 233.204C79.7241 233.204 79.8501 233.33 79.8501 233.485V279.614C79.8501 279.769 79.7251 279.895 79.5691 279.895Z" fill="#EFF2C0"/>
<path d="M134.734 324.165C102.082 318.762 88.1689 295.115 88.1689 295.115C88.1689 295.115 115.525 297.214 134.734 324.165Z" fill="#080F0F"/>
<path d="M127.306 319.812C127.255 319.812 127.204 319.799 127.157 319.769L88.0202 295.352C87.8882 295.27 87.8482 295.097 87.9302 294.965C88.0132 294.832 88.1852 294.791 88.3172 294.876L127.454 319.293C127.586 319.375 127.625 319.548 127.543 319.68C127.492 319.765 127.4 319.812 127.306 319.812Z" fill="#EFF2C0"/>
<path d="M82.3754 445.247H76.7634C73.8014 445.247 71.4004 447.648 71.4004 450.61V453.105H87.7384V450.61C87.7384 447.648 85.3374 445.247 82.3754 445.247Z" fill="#080F0F"/>
<path d="M81.6349 341.959H77.5029L77.7959 323.518H81.3429L81.6349 341.959Z" fill="#080F0F"/>
<path d="M82.598 403.159H76.54L76.711 392.079H82.428L82.598 403.159Z" fill="#080F0F"/>
<path d="M81.6349 278.831H77.5029V288.053H81.6349V278.831Z" fill="#BEA57D"/>
<path d="M87.8052 297.391L89.9922 293.885L82.1693 289.005L79.9823 292.51L87.8052 297.391Z" fill="#BEA57D"/>
<path d="M79.1655 292.51L76.9785 289.004L69.1557 293.885L71.3427 297.39L79.1655 292.51Z" fill="#BEA57D"/>
<path d="M83.303 289.823C83.303 291.886 81.631 293.558 79.569 293.558C77.507 293.558 75.835 291.886 75.835 289.823C75.835 287.761 77.507 286.089 79.569 286.089C81.632 286.088 83.303 287.76 83.303 289.823Z" fill="#080F0F"/>
</g>
<mask id="mask9_54_3482" style="mask-type:luminance" maskUnits="userSpaceOnUse" x="632" y="176" width="990" height="450">
<path d="M1622 176H632V626H1622V176Z" fill="white"/>
</mask>
<g mask="url(#mask9_54_3482)">
<path d="M719.062 469.62H711.59L711.786 457.517L712.297 424.815L712.468 413.735L713.26 363.615L713.553 345.174L714.077 311.485H716.576L717.1 345.174L717.392 363.615L718.185 413.735L718.355 424.815L718.684 445.316L719.062 469.62Z" fill="#EFF2C0"/>
<path d="M719.062 469.62H711.59L711.785 457.517C715.267 455.583 718.185 451.907 718.684 445.316L719.062 469.62Z" fill="#BEA57D"/>
<path d="M660.162 345.821C692.814 340.418 706.727 316.771 706.727 316.771C706.727 316.771 679.371 318.87 660.162 345.821Z" fill="black"/>
<path d="M663.56 344.078C663.459 344.078 663.359 344.027 663.302 343.934C663.213 343.792 663.256 343.604 663.399 343.515L705.84 317.038C705.983 316.951 706.171 316.993 706.259 317.136C706.348 317.278 706.305 317.466 706.162 317.555L663.721 344.032C663.671 344.063 663.616 344.078 663.56 344.078Z" fill="#EFF2C0"/>
<path d="M715.326 246.386C728.025 276.949 715.326 301.269 715.326 301.269C715.326 301.269 702.628 276.949 715.326 246.386Z" fill="black"/>
<path d="M715.326 301.551C715.171 301.551 715.045 301.425 715.045 301.27V255.141C715.045 254.986 715.171 254.86 715.326 254.86C715.481 254.86 715.607 254.986 715.607 255.141V301.27C715.607 301.425 715.482 301.551 715.326 301.551Z" fill="#EFF2C0"/>
<path d="M770.491 345.821C737.839 340.418 723.926 316.771 723.926 316.771C723.926 316.771 751.282 318.87 770.491 345.821Z" fill="black"/>
<path d="M763.063 341.468C763.012 341.468 762.961 341.455 762.914 341.425L723.777 317.008C723.645 316.926 723.605 316.753 723.687 316.621C723.77 316.488 723.942 316.447 724.074 316.532L763.211 340.949C763.343 341.031 763.382 341.204 763.3 341.336C763.249 341.421 763.157 341.468 763.063 341.468Z" fill="#EFF2C0"/>
<path d="M718.132 466.903H712.52C709.558 466.903 707.157 469.304 707.157 472.266V474.761H723.495V472.266C723.495 469.304 721.094 466.903 718.132 466.903Z" fill="black"/>
<path d="M717.392 363.615H713.26L713.553 345.174H717.1L717.392 363.615Z" fill="black"/>
<path d="M718.355 424.815H712.297L712.468 413.735H718.185L718.355 424.815Z" fill="black"/>
<path d="M717.392 300.487H713.26V309.709H717.392V300.487Z" fill="#BEA57D"/>
<path d="M723.562 319.047L725.749 315.542L717.926 310.661L715.739 314.166L723.562 319.047Z" fill="#BEA57D"/>
<path d="M714.922 314.166L712.735 310.66L704.912 315.541L707.099 319.046L714.922 314.166Z" fill="#BEA57D"/>
<path d="M719.06 311.479C719.06 313.542 717.388 315.214 715.326 315.214C713.264 315.214 711.592 313.542 711.592 311.479C711.592 309.417 713.264 307.745 715.326 307.745C717.389 307.744 719.06 309.416 719.06 311.479Z" fill="black"/>
</g>
<mask id="mask10_54_3482" style="mask-type:luminance" maskUnits="userSpaceOnUse" x="-4" y="154" width="991" height="451">
<path d="M986.243 154.344H-3.75684V604.344H986.243V154.344Z" fill="white"/>
</mask>
<g mask="url(#mask10_54_3482)">
<path d="M134.837 454.286H129.715L129.849 445.99L130.2 423.576L130.317 415.981L130.86 381.628L131.06 368.988L131.42 345.897H133.132L133.491 368.988L133.692 381.628L134.235 415.981L134.352 423.576L134.578 437.628L134.837 454.286Z" fill="#EFF2C0"/>
<path d="M134.837 454.286H129.716L129.85 445.99C132.237 444.664 134.236 442.145 134.579 437.627L134.837 454.286Z" fill="#BEA57D"/>
<path d="M134.2 452.424H130.354C128.324 452.424 126.678 454.07 126.678 456.1V457.81H137.876V456.1C137.876 454.07 136.23 452.424 134.2 452.424Z" fill="black"/>
<path d="M133.692 381.628H130.86L131.06 368.988H133.491L133.692 381.628Z" fill="black"/>
<path d="M134.352 423.576H130.2L130.317 415.981H134.235L134.352 423.576Z" fill="black"/>
<path d="M87.7383 345.596C108.636 354.42 125.355 345.812 125.355 345.812C125.355 345.812 108.736 337.012 87.7383 345.596Z" fill="black"/>
<path d="M90.3451 345.83C90.2861 345.793 90.2471 345.727 90.2481 345.652C90.2481 345.537 90.3421 345.444 90.4581 345.445L124.744 345.641C124.859 345.643 124.952 345.736 124.951 345.851C124.951 345.966 124.857 346.059 124.741 346.058L90.4551 345.862C90.4151 345.862 90.3771 345.85 90.3451 345.83Z" fill="#EFF2C0"/>
<path d="M156.108 308.176C152.277 330.534 136.014 339.978 136.014 339.978C136.014 339.978 137.561 321.236 156.108 308.176Z" fill="black"/>
<path d="M135.91 340.141C135.82 340.084 135.793 339.965 135.85 339.875L152.739 313.146C152.796 313.056 152.915 313.029 153.005 313.086C153.095 313.143 153.122 313.262 153.065 313.352L136.176 340.081C136.119 340.17 136 340.197 135.91 340.141Z" fill="#EFF2C0"/>
<path d="M151.667 385.989C134.725 370.904 135.321 352.108 135.321 352.108C135.321 352.108 150.404 363.34 151.667 385.989Z" fill="black"/>
<path d="M148.957 380.747C148.927 380.728 148.902 380.702 148.886 380.668L135.148 352.191C135.102 352.095 135.141 351.98 135.237 351.934C135.334 351.887 135.449 351.927 135.494 352.024L149.232 380.501C149.279 380.597 149.238 380.711 149.142 380.758C149.082 380.788 149.012 380.782 148.957 380.747Z" fill="#EFF2C0"/>
<path d="M137.505 340.275L135.11 338.762L131.734 344.106L134.128 345.619L137.505 340.275Z" fill="#BEA57D"/>
<path d="M134.275 353.278L136.826 352.048L134.08 346.354L131.529 347.585L134.275 353.278Z" fill="#BEA57D"/>
<path d="M131.054 347.308L131.07 344.476L124.749 344.44L124.733 347.272L131.054 347.308Z" fill="#BEA57D"/>
<path d="M134.441 347.26C133.686 348.455 132.105 348.812 130.91 348.057C129.715 347.302 129.358 345.721 130.113 344.526C130.868 343.331 132.449 342.974 133.644 343.729C134.839 344.484 135.196 346.065 134.441 347.26Z" fill="black"/>
</g>
<mask id="mask11_54_3482" style="mask-type:luminance" maskUnits="userSpaceOnUse" x="147" y="169" width="623" height="322">
<path d="M770 169H147V491H770V169Z" fill="white"/>
</mask>
<g mask="url(#mask11_54_3482)">
<path d="M234.216 383.625H230.993L231.077 377.689L231.298 361.65L231.372 356.216L231.713 331.634L231.839 322.59L232.066 306.067H233.143L233.369 322.59L233.495 331.634L233.837 356.216L233.911 361.65L234.053 371.705L234.216 383.625Z" fill="#EFF2C0"/>
<path d="M234.216 383.625H230.994L231.078 377.689C232.58 376.74 233.838 374.937 234.054 371.705L234.216 383.625Z" fill="#BEA57D"/>
<path d="M233.815 382.293H231.395C230.117 382.293 229.082 383.471 229.082 384.923V386.147H236.128V384.923C236.128 383.471 235.093 382.293 233.815 382.293Z" fill="black"/>
<path d="M233.496 331.634H231.713L231.839 322.59H233.369L233.496 331.634Z" fill="black"/>
<path d="M233.911 361.65H231.298L231.371 356.216H233.837L233.911 361.65Z" fill="black"/>
<path d="M204.577 305.851C217.728 312.165 228.249 306.006 228.249 306.006C228.249 306.006 217.791 299.709 204.577 305.851Z" fill="black"/>
<path d="M206.218 306.019C206.181 305.992 206.156 305.945 206.157 305.892C206.157 305.809 206.216 305.743 206.289 305.743L227.865 305.884C227.937 305.885 227.996 305.952 227.995 306.034C227.995 306.116 227.936 306.183 227.863 306.182L206.287 306.042C206.262 306.042 206.238 306.033 206.218 306.019Z" fill="#EFF2C0"/>
<path d="M247.602 279.075C245.191 295.074 234.957 301.832 234.957 301.832C234.957 301.832 235.93 288.421 247.602 279.075Z" fill="black"/>
<path d="M234.892 301.948C234.835 301.907 234.818 301.822 234.854 301.758L245.482 282.632C245.518 282.567 245.593 282.548 245.649 282.589C245.706 282.63 245.723 282.715 245.687 282.779L235.059 301.905C235.023 301.969 234.948 301.988 234.892 301.948Z" fill="#EFF2C0"/>
<path d="M244.807 334.755C234.146 323.961 234.521 310.511 234.521 310.511C234.521 310.511 244.012 318.548 244.807 334.755Z" fill="black"/>
<path d="M243.101 331.004C243.083 330.99 243.067 330.972 243.057 330.947L234.412 310.57C234.383 310.502 234.407 310.419 234.468 310.387C234.529 310.353 234.601 310.382 234.629 310.451L243.274 330.828C243.304 330.896 243.278 330.978 243.218 331.012C243.18 331.033 243.136 331.029 243.101 331.004Z" fill="#EFF2C0"/>
<path d="M235.895 302.044L234.388 300.962L232.264 304.786L233.77 305.868L235.895 302.044Z" fill="#BEA57D"/>
<path d="M233.863 311.349L235.468 310.468L233.739 306.394L232.134 307.275L233.863 311.349Z" fill="#BEA57D"/>
<path d="M231.836 307.076L231.846 305.05L227.868 305.024L227.858 307.051L231.836 307.076Z" fill="#BEA57D"/>
<path d="M233.966 307.042C233.491 307.897 232.496 308.153 231.744 307.612C230.992 307.072 230.768 305.941 231.243 305.086C231.718 304.231 232.713 303.975 233.465 304.515C234.217 305.056 234.441 306.187 233.966 307.042Z" fill="black"/>
</g>
<mask id="mask12_54_3482" style="mask-type:luminance" maskUnits="userSpaceOnUse" x="362" y="105" width="990" height="450">
<path d="M1352 105H362V555H1352V105Z" fill="white"/>
</mask>
<g mask="url(#mask12_54_3482)">
<path d="M500.594 404.942H495.472L495.606 396.646L495.957 374.232L496.074 366.637L496.617 332.284L496.817 319.644L497.177 296.553H498.889L499.248 319.644L499.449 332.284L499.992 366.637L500.109 374.232L500.335 388.284L500.594 404.942Z" fill="#EFF2C0"/>
<path d="M500.594 404.942H495.473L495.607 396.646C497.994 395.32 499.993 392.801 500.336 388.283L500.594 404.942Z" fill="#BEA57D"/>
<path d="M499.957 403.08H496.111C494.081 403.08 492.435 404.726 492.435 406.756V408.466H503.633V406.756C503.633 404.726 501.987 403.08 499.957 403.08Z" fill="black"/>
<path d="M499.449 332.284H496.617L496.817 319.644H499.248L499.449 332.284Z" fill="black"/>
<path d="M500.109 374.232H495.957L496.074 366.637H499.992L500.109 374.232Z" fill="black"/>
<path d="M453.495 296.252C474.393 305.076 491.112 296.468 491.112 296.468C491.112 296.468 474.493 287.668 453.495 296.252Z" fill="black"/>
<path d="M456.102 296.486C456.043 296.449 456.004 296.383 456.005 296.308C456.005 296.193 456.099 296.1 456.215 296.101L490.501 296.297C490.616 296.299 490.709 296.392 490.708 296.507C490.708 296.622 490.614 296.715 490.498 296.714L456.212 296.518C456.172 296.518 456.134 296.506 456.102 296.486Z" fill="#EFF2C0"/>
<path d="M521.865 258.832C518.034 281.19 501.771 290.634 501.771 290.634C501.771 290.634 503.318 271.892 521.865 258.832Z" fill="black"/>
<path d="M501.667 290.797C501.577 290.74 501.55 290.621 501.607 290.531L518.496 263.802C518.553 263.712 518.672 263.685 518.762 263.742C518.852 263.799 518.879 263.918 518.822 264.008L501.933 290.737C501.876 290.826 501.757 290.853 501.667 290.797Z" fill="#EFF2C0"/>
<path d="M517.424 336.645C500.482 321.56 501.078 302.764 501.078 302.764C501.078 302.764 516.161 313.996 517.424 336.645Z" fill="black"/>
<path d="M514.714 331.403C514.684 331.384 514.659 331.358 514.643 331.324L500.905 302.847C500.859 302.751 500.898 302.636 500.994 302.59C501.091 302.543 501.206 302.583 501.251 302.68L514.989 331.157C515.036 331.253 514.995 331.367 514.899 331.414C514.839 331.444 514.769 331.438 514.714 331.403Z" fill="#EFF2C0"/>
<path d="M503.261 290.931L500.867 289.419L497.491 294.762L499.885 296.275L503.261 290.931Z" fill="#BEA57D"/>
<path d="M500.032 303.934L502.583 302.704L499.837 297.011L497.286 298.241L500.032 303.934Z" fill="#BEA57D"/>
<path d="M496.811 297.964L496.827 295.132L490.506 295.096L490.49 297.928L496.811 297.964Z" fill="#BEA57D"/>
<path d="M500.198 297.916C499.443 299.111 497.862 299.468 496.667 298.713C495.472 297.958 495.115 296.377 495.87 295.182C496.625 293.987 498.206 293.63 499.401 294.385C500.596 295.14 500.953 296.721 500.198 297.916Z" fill="black"/>
</g>
<mask id="mask13_54_3482" style="mask-type:luminance" maskUnits="userSpaceOnUse" x="6" y="166" width="990" height="450">
<path d="M996 166H6V616H996V166Z" fill="white"/>
</mask>
<g mask="url(#mask13_54_3482)">
<path d="M505.444 424.328C514.51 434.518 511.74 453.486 505.444 459.207C499.147 453.485 496.377 434.517 505.444 424.328Z" fill="white"/>
<path d="M505.443 459.457C505.306 459.457 505.193 459.345 505.193 459.207V429.658C505.193 429.521 505.305 429.408 505.443 429.408C505.581 429.408 505.693 429.52 505.693 429.658V459.207C505.693 459.345 505.581 459.457 505.443 459.457Z" fill="#D9D9D9"/>
<path d="M505.422 457.628C505.422 449.798 513.595 436.704 524.799 434.687C525.548 446.855 513.132 458.66 505.547 459.207C505.462 458.711 505.422 458.183 505.422 457.628C505.422 458.183 505.381 458.712 505.297 459.208C497.712 458.661 485.295 446.855 486.044 434.688C497.248 436.703 505.421 449.798 505.422 457.628Z" fill="#D9D9D9"/>
<path d="M505.547 459.457C505.493 459.457 505.439 459.44 505.393 459.403C505.285 459.318 505.265 459.161 505.351 459.053L521.661 438.28C521.745 438.173 521.902 438.151 522.011 438.238C522.119 438.323 522.139 438.48 522.053 438.588L505.743 459.361C505.694 459.424 505.621 459.457 505.547 459.457Z" fill="white"/>
<path d="M505.296 459.457C505.222 459.457 505.149 459.424 505.1 459.361L488.79 438.588C488.704 438.48 488.724 438.323 488.832 438.238C488.94 438.151 489.097 438.173 489.182 438.28L505.492 459.053C505.578 459.161 505.558 459.318 505.45 459.403C505.404 459.439 505.35 459.457 505.296 459.457Z" fill="white"/>
</g>
<mask id="mask14_54_3482" style="mask-type:luminance" maskUnits="userSpaceOnUse" x="-4" y="154" width="991" height="451">
<path d="M986.243 154.344H-3.75684V604.344H986.243V154.344Z" fill="white"/>
</mask>
<g mask="url(#mask14_54_3482)">
<path d="M113.908 452.473C113.908 452.914 113.875 453.334 113.809 453.729C107.779 453.294 97.9073 443.908 98.5023 434.234C107.41 435.837 113.908 446.248 113.908 452.473Z" fill="white"/>
<path d="M113.81 454.147C113.686 454.147 113.563 454.092 113.482 453.987L100.515 437.471C100.371 437.29 100.404 437.027 100.585 436.885C100.766 436.74 101.031 436.774 101.171 436.955L114.138 453.471C114.282 453.652 114.249 453.915 114.068 454.057C113.991 454.118 113.9 454.147 113.81 454.147Z" fill="#D9D9D9"/>
<path d="M113.926 425.998C121.134 434.099 118.932 449.18 113.926 453.729C108.92 449.18 106.718 434.099 113.926 425.998Z" fill="#D9D9D9"/>
<path d="M113.926 454.115C113.714 454.115 113.541 453.942 113.541 453.73V430.236C113.541 430.024 113.714 429.851 113.926 429.851C114.138 429.851 114.311 430.024 114.311 430.236V453.73C114.312 453.942 114.138 454.115 113.926 454.115Z" fill="white"/>
</g>
<mask id="mask15_54_3482" style="mask-type:luminance" maskUnits="userSpaceOnUse" x="255" y="55" width="990" height="450">
<path d="M1245 55H255V505H1245V55Z" fill="white"/>
</mask>
<g mask="url(#mask15_54_3482)">
<path d="M670.692 429.422C670.692 430.104 670.641 430.754 670.538 431.364C661.21 430.691 645.939 416.172 646.86 401.208C660.639 403.688 670.691 419.792 670.692 429.422Z" fill="#D9D9D9"/>
<path d="M670.719 388.468C681.869 401 678.463 424.328 670.719 431.365C662.975 424.328 659.569 401 670.719 388.468Z" fill="#D9D9D9"/>
</g>
<mask id="mask16_54_3482" style="mask-type:luminance" maskUnits="userSpaceOnUse" x="723" y="70" width="990" height="450">
<path d="M1713 70H723V520H1713V70Z" fill="white"/>
</mask>
<g mask="url(#mask16_54_3482)">
<path d="M758.007 432.014C758.007 432.696 758.058 433.346 758.161 433.956C767.489 433.283 782.76 418.763 781.839 403.8C768.06 406.28 758.008 422.384 758.007 432.014Z" fill="white"/>
<path d="M757.98 391.06C746.83 403.592 750.236 426.92 757.98 433.957C765.724 426.919 769.13 403.591 757.98 391.06Z" fill="white"/>
</g>
<mask id="mask17_54_3482" style="mask-type:luminance" maskUnits="userSpaceOnUse" x="-4" y="154" width="991" height="451">
<path d="M986.243 154.344H-3.75684V604.344H986.243V154.344Z" fill="white"/>
</mask>
<g mask="url(#mask17_54_3482)">
<path d="M165.938 457.156C165.938 457.453 165.96 457.736 166.005 458.001C170.066 457.708 176.712 451.388 176.311 444.874C170.313 445.954 165.938 452.964 165.938 457.156Z" fill="white"/>
<path d="M166.004 458.283C166.087 458.283 166.17 458.246 166.225 458.175L174.957 447.054C175.054 446.932 175.032 446.755 174.91 446.659C174.788 446.561 174.61 446.584 174.515 446.706L165.783 457.827C165.686 457.949 165.708 458.126 165.83 458.222C165.882 458.264 165.944 458.283 166.004 458.283Z" fill="#D9D9D9"/>
<path d="M165.926 439.329C161.072 444.784 162.555 454.939 165.926 458.002C169.297 454.939 170.779 444.784 165.926 439.329Z" fill="#D9D9D9"/>
<path d="M165.925 458.261C166.068 458.261 166.185 458.144 166.185 458.002V442.182C166.185 442.039 166.068 441.923 165.925 441.923C165.782 441.923 165.666 442.04 165.666 442.182V458.002C165.666 458.145 165.783 458.261 165.925 458.261Z" fill="white"/>
</g>
<mask id="mask18_54_3482" style="mask-type:luminance" maskUnits="userSpaceOnUse" x="-4" y="154" width="991" height="451">
<path d="M986.243 154.344H-3.75684V604.344H986.243V154.344Z" fill="white"/>
</mask>
<g mask="url(#mask18_54_3482)">
<path d="M904.068 372.282C912.091 363.141 910.227 349.679 904.068 343.751C897.908 349.679 896.045 363.141 904.068 372.282Z" fill="white"/>
<path d="M904.068 372.571C903.909 372.571 903.779 372.441 903.779 372.282V350.732C903.779 350.572 903.909 350.443 904.068 350.443C904.227 350.443 904.357 350.572 904.357 350.732V372.282C904.357 372.442 904.227 372.571 904.068 372.571Z" fill="#D9D9D9"/>
<path d="M904.181 379.994C914.153 379.189 920.761 370.171 920.518 363.144C913.486 363.117 904.677 370.001 904.181 379.994Z" fill="white"/>
<path d="M904.18 380.282C904.108 380.282 904.035 380.255 903.979 380.201C903.864 380.089 903.861 379.906 903.972 379.792L916.313 367.064C916.424 366.951 916.608 366.947 916.722 367.057C916.837 367.169 916.839 367.352 916.729 367.466L904.388 380.193C904.332 380.253 904.256 380.282 904.18 380.282Z" fill="#D9D9D9"/>
<path d="M903.957 379.994C893.985 379.189 887.377 370.171 887.62 363.144C894.652 363.117 903.461 370.001 903.957 379.994Z" fill="#D9D9D9"/>
<path d="M903.956 380.282C903.88 380.282 903.805 380.253 903.748 380.194L891.408 367.467C891.297 367.353 891.3 367.17 891.415 367.058C891.532 366.947 891.714 366.952 891.824 367.065L904.164 379.793C904.275 379.907 904.273 380.09 904.157 380.202C904.1 380.255 904.028 380.282 903.956 380.282Z" fill="white"/>
<path d="M904.072 391.277C914.552 390.575 923.357 381.487 924.647 374.341C917.386 374.233 906.775 381.127 904.072 391.277Z" fill="#D9D9D9"/>
<path d="M904.341 391.345C904.258 391.345 904.175 391.309 904.117 391.24C904.015 391.117 904.033 390.934 904.157 390.832L919.495 378.208C919.62 378.106 919.801 378.125 919.903 378.248C920.005 378.371 919.986 378.554 919.863 378.656L904.525 391.28C904.471 391.323 904.405 391.345 904.341 391.345Z" fill="white"/>
<path d="M904.23 391.489C893.641 390.78 884.746 381.598 883.443 374.379C890.779 374.269 901.499 381.234 904.23 391.489Z" fill="white"/>
<path d="M903.795 391.345C903.73 391.345 903.665 391.323 903.611 391.279L888.273 378.655C888.15 378.553 888.132 378.37 888.233 378.247C888.335 378.124 888.517 378.106 888.641 378.207L903.979 390.831C904.102 390.933 904.12 391.116 904.019 391.239C903.961 391.309 903.879 391.345 903.795 391.345Z" fill="#D9D9D9"/>
<path d="M904.127 403.102C914.678 403.334 924.3 395.024 926.227 387.988C918.971 387.233 907.738 393.186 904.127 403.102Z" fill="white"/>
<path d="M904.519 403.125C904.427 403.125 904.336 403.081 904.28 402.999C904.19 402.867 904.223 402.687 904.355 402.597L920.753 391.382C920.888 391.292 921.066 391.326 921.155 391.457C921.246 391.589 921.212 391.769 921.08 391.859L904.682 403.074C904.631 403.109 904.575 403.125 904.519 403.125Z" fill="#D9D9D9"/>
<path d="M904.235 403.442C893.512 403.678 883.733 395.232 881.774 388.081C889.149 387.313 900.566 393.363 904.235 403.442Z" fill="#D9D9D9"/>
<path d="M903.618 403.125C903.561 403.125 903.505 403.109 903.454 403.074L887.056 391.859C886.925 391.769 886.891 391.589 886.981 391.457C887.071 391.326 887.25 391.292 887.383 391.382L903.781 402.597C903.912 402.687 903.946 402.867 903.856 402.999C903.801 403.081 903.709 403.125 903.618 403.125Z" fill="white"/>
<path d="M904.292 414.278C912.908 414.467 920.766 407.681 922.34 401.935C916.414 401.318 907.24 406.179 904.292 414.278Z" fill="#D9D9D9"/>
<path d="M904.291 414.574C904.197 414.574 904.105 414.529 904.047 414.445C903.956 414.309 903.989 414.126 904.124 414.034L917.757 404.711C917.894 404.62 918.076 404.652 918.168 404.788C918.259 404.924 918.226 405.107 918.091 405.199L904.458 414.523C904.407 414.557 904.349 414.574 904.291 414.574Z" fill="white"/>
<path d="M904.124 414.665C895.306 414.859 887.264 407.914 885.653 402.033C891.717 401.402 901.106 406.377 904.124 414.665Z" fill="white"/>
<path d="M903.465 414.308C903.409 414.308 903.352 414.292 903.301 414.257L889.956 405.13C889.825 405.04 889.791 404.86 889.881 404.727C889.97 404.597 890.151 404.562 890.283 404.653L903.629 413.78C903.76 413.869 903.794 414.05 903.704 414.182C903.648 414.263 903.557 414.308 903.465 414.308Z" fill="#D9D9D9"/>
<path d="M903.616 371.132C903.618 370.89 903.815 370.694 904.057 370.694C904.299 370.694 904.496 370.889 904.498 371.132L905.001 436.457H903.138L903.616 371.132Z" fill="white"/>
</g>
<mask id="mask19_54_3482" style="mask-type:luminance" maskUnits="userSpaceOnUse" x="-4" y="154" width="991" height="451">
<path d="M986.243 154.344H-3.75684V604.344H986.243V154.344Z" fill="white"/>
</mask>
<g mask="url(#mask19_54_3482)">
<path d="M47.5169 405.688C53.2079 399.204 51.8859 389.654 47.5169 385.449C43.1469 389.654 41.8249 399.204 47.5169 405.688Z" fill="white"/>
<path d="M47.5155 405.893C47.4025 405.893 47.3105 405.801 47.3105 405.688V390.401C47.3105 390.288 47.4025 390.196 47.5155 390.196C47.6285 390.196 47.7205 390.288 47.7205 390.401V405.688C47.7205 405.801 47.6285 405.893 47.5155 405.893Z" fill="#D9D9D9"/>
<path d="M47.5957 411.158C54.6697 410.587 59.3577 404.19 59.1847 399.205C54.1957 399.186 47.9467 404.07 47.5957 411.158Z" fill="white"/>
<path d="M47.5961 411.363C47.5451 411.363 47.4931 411.344 47.4531 411.305C47.3711 411.226 47.3701 411.096 47.4481 411.015L56.2021 401.986C56.2801 401.906 56.4111 401.903 56.4921 401.981C56.5741 402.06 56.5751 402.19 56.4971 402.271L47.7431 411.299C47.7031 411.342 47.6491 411.363 47.5961 411.363Z" fill="#D9D9D9"/>
<path d="M47.4374 411.158C40.3634 410.587 35.6754 404.19 35.8484 399.205C40.8374 399.186 47.0854 404.07 47.4374 411.158Z" fill="#D9D9D9"/>
<path d="M47.437 411.363C47.383 411.363 47.33 411.342 47.289 411.3L38.536 402.272C38.458 402.191 38.459 402.061 38.541 401.982C38.624 401.903 38.754 401.907 38.831 401.987L47.585 411.016C47.663 411.097 47.662 411.227 47.58 411.306C47.539 411.344 47.488 411.363 47.437 411.363Z" fill="white"/>
<path d="M47.5195 419.162C54.9535 418.664 61.2005 412.217 62.1145 407.148C56.9645 407.072 49.4375 411.962 47.5195 419.162Z" fill="#D9D9D9"/>
<path d="M47.7105 419.211C47.6515 419.211 47.5925 419.185 47.5515 419.137C47.4795 419.049 47.4925 418.92 47.5795 418.847L58.4595 409.892C58.5485 409.82 58.6765 409.833 58.7485 409.92C58.8205 410.007 58.8075 410.137 58.7205 410.209L47.8405 419.165C47.8025 419.196 47.7565 419.211 47.7105 419.211Z" fill="white"/>
<path d="M47.6317 419.313C40.1207 418.81 33.8097 412.296 32.8857 407.175C38.0887 407.098 45.6937 412.038 47.6317 419.313Z" fill="white"/>
<path d="M47.3229 419.211C47.2769 419.211 47.2309 419.196 47.1919 419.165L36.3119 410.209C36.2249 410.137 36.2119 410.007 36.2839 409.92C36.3559 409.833 36.4849 409.82 36.5729 409.892L47.4529 418.847C47.5409 418.919 47.5529 419.049 47.4809 419.137C47.4409 419.185 47.3819 419.211 47.3229 419.211Z" fill="#D9D9D9"/>
<path d="M47.5596 427.551C55.0446 427.715 61.8696 421.821 63.2366 416.829C58.0896 416.294 50.1206 420.516 47.5596 427.551Z" fill="white"/>
<path d="M47.8367 427.567C47.7717 427.567 47.7067 427.536 47.6677 427.478C47.6037 427.384 47.6277 427.257 47.7207 427.193L59.3527 419.237C59.4477 419.173 59.5747 419.197 59.6377 419.29C59.7017 419.384 59.6777 419.511 59.5847 419.576L47.9527 427.532C47.9167 427.556 47.8767 427.567 47.8367 427.567Z" fill="#D9D9D9"/>
<path d="M47.6351 427.792C40.0281 427.959 33.0911 421.968 31.7021 416.895C36.9331 416.35 45.0321 420.642 47.6351 427.792Z" fill="#D9D9D9"/>
<path d="M47.1972 427.567C47.1572 427.567 47.1172 427.556 47.0812 427.531L35.4492 419.575C35.3562 419.511 35.3322 419.383 35.3962 419.289C35.4602 419.196 35.5872 419.172 35.6812 419.236L47.3132 427.192C47.4062 427.256 47.4302 427.383 47.3662 427.477C47.3272 427.536 47.2622 427.567 47.1972 427.567Z" fill="white"/>
<path d="M47.6758 435.479C53.7878 435.613 59.3618 430.799 60.4788 426.724C56.2748 426.285 49.7678 429.734 47.6758 435.479Z" fill="#D9D9D9"/>
<path d="M47.6753 435.689C47.6093 435.689 47.5433 435.657 47.5023 435.598C47.4373 435.502 47.4613 435.372 47.5573 435.306L57.2273 428.692C57.3243 428.627 57.4533 428.65 57.5193 428.746C57.5843 428.842 57.5603 428.972 57.4643 429.038L47.7933 435.652C47.7573 435.677 47.7163 435.689 47.6753 435.689Z" fill="white"/>
<path d="M47.5561 435.754C41.3011 435.892 35.5961 430.965 34.4531 426.793C38.7551 426.345 45.4161 429.874 47.5561 435.754Z" fill="white"/>
<path d="M47.0889 435.5C47.0489 435.5 47.0089 435.489 46.9729 435.464L37.5059 428.99C37.4129 428.927 37.3889 428.798 37.4529 428.704C37.5159 428.612 37.6449 428.587 37.7379 428.651L47.2049 435.125C47.2979 435.188 47.3219 435.316 47.2579 435.41C47.2189 435.469 47.1539 435.5 47.0889 435.5Z" fill="#D9D9D9"/>
<path d="M47.1954 404.872C47.1964 404.7 47.3364 404.561 47.5084 404.561C47.6804 404.561 47.8204 404.7 47.8214 404.872L48.1784 451.212H46.8564L47.1954 404.872Z" fill="white"/>
</g>
<mask id="mask20_54_3482" style="mask-type:luminance" maskUnits="userSpaceOnUse" x="117" y="182" width="653" height="297">
<path d="M770 182H117V478.818H770V182Z" fill="white"/>
</mask>
<g mask="url(#mask20_54_3482)">
<path d="M234.948 254.416C225.211 247.425 219.01 252.334 219.01 252.334C219.01 252.334 226.339 260.632 234.948 254.416Z" fill="white"/>
<path d="M245.238 260.905C239.941 252.464 243.559 247.167 247.176 245.616C252.473 251.042 248.985 258.105 245.238 260.905Z" fill="white"/>
<path d="M264.114 268.565C263.455 260.474 256.89 257.061 252.861 256.727C253.119 262.799 259.605 267.094 264.114 268.565Z" fill="white"/>
<path d="M249.88 263.503C237.874 261.507 236.52 273.265 236.52 273.265C236.52 273.265 247.545 273.509 249.88 263.503Z" fill="white"/>
<path d="M279.096 265.902C278.635 258.591 269.811 252.855 264.114 253.693C266.556 263.446 275.228 265.774 279.096 265.902Z" fill="white"/>
<path d="M266.975 244.482C262.55 239.802 256.078 238.769 251.755 240.319C254.928 246.779 264.034 246.577 266.975 244.482Z" fill="white"/>
<path d="M273.171 251.156C270.045 243.161 275.105 235.796 279.939 233.987C283.094 243.29 277.072 249.075 273.171 251.156Z" fill="white"/>
<path d="M293.505 245.616C294.722 233.342 285.963 229.154 285.963 229.154C285.963 229.154 279.368 237.477 293.505 245.616Z" fill="white"/>
<path d="M289.2 265.902C290.717 256.727 299.11 254.66 299.11 254.66C299.11 254.66 298.276 264.999 289.2 265.902Z" fill="white"/>
<path d="M293.62 221.624C283.481 212.927 277.667 217.837 277.667 217.837C277.667 217.837 284.639 226.962 293.62 221.624Z" fill="white"/>
<path d="M290.437 217.238C289.812 206.985 293.171 201.171 301.699 200.654C304.283 209.569 295.584 215.732 290.437 217.238Z" fill="white"/>
<path d="M271.682 280.95C271.872 280.95 272.056 280.865 272.18 280.7C285.936 262.356 278.727 255.542 272.368 249.528C268.483 245.855 264.811 242.386 266.256 236.548C266.338 236.214 266.135 235.877 265.802 235.795C265.47 235.711 265.13 235.917 265.048 236.25C263.43 242.792 267.539 246.677 271.513 250.433C277.786 256.364 284.275 262.499 271.184 279.954C270.978 280.228 271.034 280.619 271.308 280.825C271.421 280.91 271.553 280.95 271.682 280.95Z" fill="white"/>
<path d="M270.131 280.95C270.423 280.95 270.681 280.744 270.742 280.448C272.832 269.827 262.98 266.841 253.45 263.954C242.18 260.539 230.526 257.006 234.555 241.639C234.642 241.307 234.444 240.966 234.112 240.879C233.778 240.803 233.437 240.991 233.353 241.323C229.015 257.85 241.805 261.726 253.091 265.145C262.911 268.122 271.392 270.692 269.518 280.208C269.452 280.546 269.671 280.872 270.009 280.938C270.051 280.946 270.091 280.95 270.131 280.95Z" fill="white"/>
<path d="M291.313 280.95C291.613 280.95 291.877 280.735 291.927 280.431C292.87 274.787 291.743 271.535 290.652 268.391C288.943 263.473 287.331 258.829 294.628 244.782C302.019 230.562 295.177 222.099 289.682 215.298C286.176 210.959 283.146 207.211 284.671 203.019C284.787 202.696 284.622 202.339 284.299 202.222C283.97 202.113 283.617 202.272 283.501 202.594C281.737 207.446 284.969 211.447 288.715 216.081C294.257 222.939 300.538 230.711 293.527 244.208C285.979 258.73 287.676 263.622 289.476 268.799C290.515 271.796 291.59 274.894 290.699 280.225C290.644 280.563 290.871 280.885 291.21 280.942C291.244 280.947 291.278 280.95 291.313 280.95Z" fill="white"/>
<path d="M354.714 329.424C372.113 337.176 383.655 335.626 383.655 335.626L385.205 340.449L347.135 351.819L354.714 329.424Z" fill="white"/>
<path d="M327.322 427.261C331.127 438.947 338.252 462.103 341.869 486.717C336.822 506.769 342.867 525.068 347.887 549.087C348.453 551.732 348.993 554.458 349.506 557.238C349.803 558.83 350.1 560.45 350.369 562.096C351.044 566.118 351.638 570.327 352.124 574.727H360.733C360.868 571.11 361.003 567.575 361.138 564.12C361.219 561.799 361.327 559.505 361.408 557.238C362.001 543.366 362.622 530.546 363.243 518.699C366.671 453.413 369.666 417.815 362.46 400.488C360.625 396.063 358.115 392.824 354.795 390.584L319.305 386.023L318.361 385.915C318.362 385.915 316.985 395.576 327.322 427.261Z" fill="#080F0F"/>
<path d="M262.198 553.379L269.108 559.586L271.429 557.022L279.742 547.711L301.494 523.448L319.792 503.072C323.868 498.511 326.62 492.978 327.808 486.987C331.478 468.338 339.386 425.48 340.87 396.683C341.059 393.229 341.14 389.963 341.113 386.967L312.937 390.584C306.972 397.385 303.059 403.943 300.63 410.339C300.603 410.366 300.576 410.366 300.603 410.393C290.968 435.844 304.867 458.892 307.35 485.853C284.869 499.51 282.116 512.086 272.643 533.029C271.779 534.945 270.862 536.915 269.863 538.967C268.109 542.61 266.139 546.469 263.764 550.626C263.278 551.516 262.738 552.434 262.198 553.379Z" fill="#080F0F"/>
<path d="M319.306 386.022L340.869 396.683C348.399 391.339 356.442 395.253 362.46 400.488C360.625 396.062 358.115 392.823 354.795 390.583L319.306 386.022Z" fill="#080F0F"/>
<path d="M300.631 410.339C312.155 396.332 331.452 391.96 340.871 396.683C341.059 393.228 341.141 389.963 341.114 386.967L312.938 390.583C306.973 397.384 303.059 403.943 300.631 410.339Z" fill="white"/>
<path d="M386.152 344.153C396.373 343.98 405.36 340.277 410.873 336.315C413.598 334.356 413.877 329.907 412.94 326.84C410.098 317.538 392.107 332.73 392.107 332.73C392.107 332.73 398.179 321.963 396.489 319.346C394.349 316.033 383.827 336.401 383.827 336.401L386.152 344.153Z" fill="#FFBDC2"/>
<path d="M356.568 213.194C366.781 213.846 384.953 238.26 361.337 252.144C347.502 257.083 341.63 227.317 356.568 213.194Z" fill="white"/>
<path d="M362.877 228.366C364.455 251.61 361.225 275.517 347.7 270.871C347.7 270.871 342.973 277.963 342.082 286.609C342.082 286.609 338.629 287.57 331.536 282.844C324.444 278.116 317.998 245.45 329.388 235.067C340.778 224.683 357.881 219.815 357.881 219.815L362.877 228.366Z" fill="#FFBDC2"/>
<path d="M329.354 284.882C335.83 286.248 339.109 280.914 340.167 274.099C341.559 265.224 339.162 253.88 335.08 251.907C327.898 248.426 336.182 232.929 339.6 239.25C343.008 245.596 357.707 240.785 362.887 228.364C370.329 216.749 351.052 210.784 351.052 210.784C342.952 208.35 337.216 208.681 332.876 210.886C319.872 217.448 319.674 240.877 307.395 257.212C291.022 278.991 314.398 281.662 329.354 284.882Z" fill="white"/>
<path d="M357.328 245.71C357.112 247.985 356.359 249.773 355.647 249.705C354.935 249.637 354.532 247.739 354.748 245.466C354.964 243.191 355.717 241.402 356.429 241.47C357.142 241.538 357.544 243.436 357.328 245.71Z" fill="black"/>
<path d="M325.535 288.583C332.011 289.949 339.109 280.914 340.167 274.099C326.923 276.277 309.534 263.822 321.69 245.265C333.266 227.532 321.915 223.365 332.875 210.886C319.872 217.448 319.674 240.877 307.395 257.212C291.021 278.991 310.579 285.363 325.535 288.583Z" fill="white"/>
<path d="M311.993 384.376C312.559 388.289 312.937 390.583 312.937 390.583H354.797C354.797 390.583 354.527 388.235 354.283 384.376C353.419 371.34 352.691 341.114 363.082 327.538C376.495 309.968 355.066 289.025 341.113 278.959C297.338 260.552 308.349 358.386 311.993 384.376Z" fill="#080F0F"/>
<path d="M311.992 384.376C312.559 388.289 312.937 390.583 312.937 390.583H354.796C354.796 390.583 354.526 388.235 354.283 384.376H311.992Z" fill="#080F0F"/>
<path d="M392.653 336.134C391.262 335.271 390.754 333.494 391.478 332.027L404.634 305.383C405.93 302.811 409.017 301.71 411.648 302.882L418.617 305.989C421.651 307.341 422.754 311.088 420.936 313.868L402.96 342.52L392.653 336.134Z" fill="#080F0F"/>
<path d="M407.508 306.83C407.769 306.311 408.207 305.943 408.721 305.759C409.234 305.577 409.807 305.584 410.337 305.821L417.307 308.928C417.615 309.065 417.863 309.255 418.059 309.478C418.265 309.714 418.42 309.996 418.509 310.301C418.599 310.607 418.622 310.927 418.576 311.237C418.534 311.53 418.427 311.825 418.21 312.158L401.935 338.099L394.38 333.418C394.38 333.418 407.519 306.808 407.508 306.83Z" fill="#080F0F"/>
<path d="M424.22 302.131C424.286 302.131 424.352 302.121 424.418 302.1C424.742 301.99 424.918 301.638 424.81 301.312C423.373 297.013 418.722 294.452 414.21 295.505C413.875 295.583 413.667 295.917 413.743 296.252C413.82 296.584 414.146 296.793 414.489 296.718C418.371 295.815 422.393 298.004 423.629 301.707C423.716 301.967 423.959 302.131 424.22 302.131Z" fill="#080F0F"/>
<path d="M430.727 299.958C430.793 299.958 430.859 299.947 430.925 299.926C431.249 299.817 431.425 299.465 431.318 299.139C430.086 295.452 427.522 292.367 424.098 290.452C420.611 288.499 416.539 287.92 412.66 288.823C412.325 288.901 412.118 289.235 412.194 289.57C412.271 289.904 412.595 290.107 412.94 290.035C416.528 289.201 420.275 289.736 423.493 291.538C426.645 293.302 429.004 296.141 430.138 299.534C430.223 299.793 430.466 299.958 430.727 299.958Z" fill="#080F0F"/>
<path d="M437.231 297.783C437.297 297.783 437.363 297.773 437.429 297.752C437.753 297.643 437.929 297.291 437.821 296.964C436.047 291.656 432.363 287.216 427.45 284.466C422.466 281.677 416.657 280.855 411.11 282.14C410.775 282.218 410.567 282.553 410.644 282.887C410.72 283.219 411.044 283.431 411.39 283.352C416.64 282.138 422.13 282.918 426.845 285.552C431.486 288.151 434.965 292.344 436.641 297.359C436.728 297.619 436.97 297.783 437.231 297.783Z" fill="#080F0F"/>
<path d="M443.739 295.611C443.805 295.611 443.871 295.6 443.937 295.58C444.261 295.47 444.437 295.118 444.329 294.791C442.013 287.86 437.208 282.066 430.801 278.481C424.327 274.856 416.787 273.783 409.56 275.459C409.225 275.538 409.017 275.872 409.093 276.207C409.17 276.54 409.494 276.745 409.839 276.672C416.766 275.065 423.987 276.092 430.194 279.567C436.33 283.001 440.929 288.549 443.148 295.187C443.235 295.446 443.478 295.611 443.739 295.611Z" fill="#080F0F"/>
<path d="M330.076 343.837C330.993 343.837 331.887 343.37 332.393 342.527C345.236 321.12 348.965 303.678 330.012 277.869C329.135 276.667 327.445 276.407 326.241 277.291C325.04 278.174 324.781 279.862 325.664 281.064C342.924 304.572 339.719 319.825 327.764 339.749C326.997 341.027 327.411 342.685 328.69 343.452C329.124 343.713 329.605 343.837 330.076 343.837Z" fill="#080F0F"/>
<path d="M288.649 378.348C274.616 378.348 263.24 366.972 263.24 352.938V290.492H314.058V352.938C314.058 366.972 302.682 378.348 288.649 378.348Z" fill="#080F0F"/>
<path d="M316.757 280.328H260.541L263.239 290.491H314.058L316.757 280.328Z" fill="#080F0F"/>
<path d="M273.922 329.858C273.922 337.898 280.44 344.416 288.48 344.416C296.52 344.416 303.038 337.898 303.038 329.858C303.038 321.818 296.52 315.3 288.48 315.3C280.44 315.3 273.922 321.817 273.922 329.858Z" fill="#080F0F"/>
<path d="M284.084 326.323C284.084 328.035 285.472 329.424 287.185 329.424C288.898 329.424 290.286 328.035 290.286 326.323C290.286 324.611 288.897 323.222 287.185 323.222C285.472 323.222 284.084 324.611 284.084 326.323Z" fill="white"/>
<path d="M285.962 315.532C284.084 305.995 278.919 304.101 273.922 304.272C273.922 304.272 273.25 311.59 285.962 315.532Z" fill="#080F0F"/>
<path d="M285.962 315.532C286.001 308.634 288.003 304.176 290.491 302.496C292.816 307.148 289.865 312.837 285.962 315.532Z" fill="#080F0F"/>
<path d="M332.301 350.253C334.903 312.282 326.634 279.466 313.197 282.308C299.76 285.151 302.086 333.213 328.184 367.063C369.27 359.053 392.526 345.874 392.526 345.874L390.2 338.123C390.2 338.123 344.946 343.778 332.301 350.253Z" fill="white"/>
<path d="M392.526 345.875C402.747 345.703 411.735 342 417.247 338.037C419.972 336.078 420.251 331.629 419.314 328.563C416.472 319.261 397.953 334.248 397.953 334.248C397.953 334.248 405.689 323.82 402.862 321.069C400.709 318.973 390.933 334.852 390.201 338.124L392.526 345.875Z" fill="#FFBDC2"/>
<path d="M265.152 238.527C262.376 224.564 271.594 222.364 271.594 222.364C271.594 222.364 275.382 230.197 265.152 238.527Z" fill="white"/>
<path d="M233.439 243.204C229.805 232.48 240.658 229.25 240.658 229.25C240.658 229.25 243.403 238.295 233.439 243.204Z" fill="white"/>
<path d="M283.826 204.272C277.667 194.97 288.94 191.093 288.94 191.093C288.94 191.093 293.86 197.037 283.826 204.272Z" fill="white"/>
<path d="M323.707 358.185C323.754 358.185 323.802 358.176 323.847 358.155C324.017 358.077 324.091 357.877 324.012 357.707C308.262 323.299 308.57 293.378 314.845 285.009C314.959 284.859 314.927 284.648 314.78 284.536C314.629 284.428 314.418 284.453 314.308 284.603C307.929 293.108 307.539 323.343 323.4 357.989C323.457 358.113 323.58 358.185 323.707 358.185Z" fill="#080F0F"/>
</g>
<mask id="mask21_54_3482" style="mask-type:luminance" maskUnits="userSpaceOnUse" x="582" y="144" width="990" height="450">
<path d="M1572 144H582V594H1572V144Z" fill="white"/>
</mask>
<g mask="url(#mask21_54_3482)">
<path d="M1520.43 212.272C1520.32 212.272 1520.21 212.273 1520.11 212.275C1518.8 203.576 1511.27 196.883 1502.22 196.883C1500.57 196.883 1498.95 197.104 1497.39 197.535C1493.32 191.195 1486.26 187.208 1478.46 187.208C1473.07 187.208 1468.14 189.123 1464.26 192.287C1460.46 180.043 1449.03 171.123 1435.55 171.123C1419.65 171.123 1406.6 183.531 1405.56 199.173C1404.57 199.038 1403.55 198.969 1402.54 198.969C1389.99 198.969 1379.79 209.174 1379.79 221.716C1379.79 234.259 1389.99 244.463 1402.54 244.463H1520.43C1529.31 244.463 1536.53 237.242 1536.53 228.367C1536.53 219.493 1529.31 212.272 1520.43 212.272Z" fill="white"/>
</g>
<mask id="mask22_54_3482" style="mask-type:luminance" maskUnits="userSpaceOnUse" x="833" y="193" width="575" height="271">
<path d="M1408 193H833V464H1408V193Z" fill="white"/>
</mask>
<g mask="url(#mask22_54_3482)">
<path d="M1378.05 234.115C1377.99 234.115 1377.92 234.116 1377.86 234.117C1377.1 228.878 1372.73 224.847 1367.47 224.847C1366.51 224.847 1365.57 224.98 1364.67 225.24C1362.3 221.422 1358.2 219.021 1353.67 219.021C1350.54 219.021 1347.67 220.174 1345.42 222.08C1343.21 214.706 1336.58 209.334 1328.75 209.334C1319.52 209.334 1311.93 216.806 1311.33 226.226C1310.75 226.145 1310.17 226.104 1309.57 226.104C1302.29 226.104 1296.36 232.249 1296.36 239.802C1296.36 247.356 1302.29 253.501 1309.57 253.501H1378.05C1383.2 253.501 1387.4 249.152 1387.4 243.808C1387.4 238.464 1383.2 234.115 1378.05 234.115Z" fill="white"/>
</g>
<mask id="mask23_54_3482" style="mask-type:luminance" maskUnits="userSpaceOnUse" x="339" y="132" width="991" height="451">
<path d="M1329.24 132.344H339.243V582.344H1329.24V132.344Z" fill="white"/>
</mask>
<g mask="url(#mask23_54_3482)">
<path d="M1130.85 283.58C1132.51 270.08 1122.91 257.788 1109.41 256.126C1095.91 254.464 1083.62 264.06 1081.96 277.56C1080.3 291.061 1089.89 303.352 1103.39 305.014C1116.89 306.676 1129.19 297.08 1130.85 283.58Z" fill="#38A9AF"/>
<path d="M1106.39 291.337C1099.73 291.337 1098.53 286.186 1100.06 280.642C1101.12 276.646 1103.57 272.465 1106.39 269.786C1109.2 272.465 1111.68 276.669 1112.74 280.665C1114.24 286.21 1113.04 291.337 1106.39 291.337Z" fill="white"/>
</g>
<mask id="mask24_54_3482" style="mask-type:luminance" maskUnits="userSpaceOnUse" x="339" y="132" width="991" height="451">
<path d="M1329.24 132.344H339.243V582.344H1329.24V132.344Z" fill="white"/>
</mask>
<g mask="url(#mask24_54_3482)">
<path d="M888.447 210.05C892.332 187.636 877.312 166.316 854.898 162.431C832.484 158.545 811.164 173.566 807.278 195.98C803.393 218.394 818.413 239.714 840.827 243.599C863.242 247.485 884.561 232.464 888.447 210.05Z" fill="#A52422"/>
<path d="M856.125 203.009C856.125 207.578 852.421 211.282 847.852 211.282C843.283 211.282 839.579 207.578 839.579 203.009C839.579 198.44 843.283 194.736 847.852 194.736C852.421 194.736 856.125 198.44 856.125 203.009Z" fill="white"/>
<path d="M847.852 191.738C846.986 191.738 846.278 191.03 846.278 190.164V183.15C846.278 182.285 846.986 181.577 847.852 181.577C848.717 181.577 849.426 182.285 849.426 183.15V190.164C849.426 191.03 848.718 191.738 847.852 191.738Z" fill="white"/>
<path d="M847.852 224.44C846.986 224.44 846.278 223.732 846.278 222.866V215.851C846.278 214.986 846.986 214.278 847.852 214.278C848.717 214.278 849.426 214.986 849.426 215.851V222.866C849.426 223.732 848.718 224.44 847.852 224.44Z" fill="white"/>
<path d="M859.122 203.009C859.122 202.144 859.83 201.435 860.696 201.435H867.709C868.575 201.435 869.283 202.143 869.283 203.009C869.283 203.874 868.575 204.582 867.709 204.582H860.696C859.831 204.582 859.122 203.874 859.122 203.009Z" fill="white"/>
<path d="M826.421 203.009C826.421 202.144 827.129 201.435 827.995 201.435H835.009C835.875 201.435 836.583 202.143 836.583 203.009C836.583 203.874 835.875 204.582 835.009 204.582H827.995C827.129 204.582 826.421 203.874 826.421 203.009Z" fill="white"/>
<path d="M855.821 195.039C855.209 194.427 855.209 193.426 855.821 192.813L860.781 187.854C861.393 187.242 862.394 187.242 863.007 187.854C863.619 188.466 863.619 189.467 863.007 190.079L858.047 195.039C857.434 195.651 856.433 195.651 855.821 195.039Z" fill="white"/>
<path d="M832.698 218.163C832.086 217.551 832.086 216.549 832.698 215.937L837.657 210.978C838.269 210.366 839.271 210.366 839.882 210.978C840.494 211.59 840.494 212.592 839.882 213.203L834.922 218.163C834.311 218.775 833.31 218.775 832.698 218.163Z" fill="white"/>
<path d="M855.821 210.978C856.433 210.366 857.434 210.366 858.046 210.978L863.006 215.937C863.618 216.549 863.618 217.551 863.006 218.163C862.394 218.775 861.393 218.775 860.78 218.163L855.82 213.203C855.209 212.591 855.209 211.59 855.821 210.978Z" fill="white"/>
<path d="M832.698 187.854C833.31 187.242 834.311 187.242 834.923 187.854L839.883 192.813C840.495 193.425 840.495 194.427 839.883 195.039C839.271 195.651 838.27 195.651 837.658 195.039L832.699 190.079C832.086 189.467 832.086 188.466 832.698 187.854Z" fill="white"/>
</g>
<mask id="mask25_54_3482" style="mask-type:luminance" maskUnits="userSpaceOnUse" x="339" y="132" width="991" height="451">
<path d="M1329.24 132.344H339.243V582.344H1329.24V132.344Z" fill="white"/>
</mask>
<g mask="url(#mask25_54_3482)">
<path d="M972.858 293.657C987.579 278.936 987.579 255.069 972.858 240.348C958.137 225.627 934.27 225.627 919.549 240.348C904.828 255.069 904.828 278.936 919.549 293.657C934.27 308.378 958.137 308.378 972.858 293.657Z" fill="#080F0F"/>
<path d="M953.361 266.999C950.579 266.999 948.183 265.152 946.038 263.501C943.901 261.851 941.89 260.293 939.863 260.576C938.249 260.804 936.462 262.229 934.554 264.812C933.917 265.682 932.684 265.865 931.821 265.224C930.951 264.583 930.768 263.36 931.409 262.492C934 258.983 936.588 257.09 939.32 256.706C942.926 256.197 945.858 258.431 948.422 260.404C950.368 261.904 952.177 263.315 953.761 263.056C954.983 262.846 956.341 261.6 957.795 259.351C958.386 258.442 959.6 258.192 960.496 258.772C961.404 259.36 961.66 260.57 961.076 261.476C958.973 264.722 956.794 266.499 954.42 266.907C954.06 266.971 953.709 266.999 953.361 266.999Z" fill="white"/>
<path d="M953.361 277.366C950.579 277.366 948.183 275.518 946.038 273.868C943.901 272.218 941.89 270.66 939.863 270.943C938.249 271.17 936.462 272.595 934.554 275.179C933.917 276.049 932.684 276.232 931.821 275.591C930.951 274.95 930.768 273.727 931.409 272.859C934 269.35 936.588 267.457 939.32 267.073C942.926 266.563 945.858 268.798 948.422 270.771C950.368 272.271 952.177 273.683 953.761 273.424C954.983 273.214 956.341 271.968 957.795 269.718C958.386 268.809 959.6 268.56 960.496 269.14C961.404 269.728 961.66 270.937 961.076 271.844C958.973 275.09 956.794 276.866 954.42 277.275C954.06 277.337 953.709 277.366 953.361 277.366Z" fill="white"/>
</g>
<mask id="mask26_54_3482" style="mask-type:luminance" maskUnits="userSpaceOnUse" x="339" y="132" width="991" height="451">
<path d="M1329.24 132.344H339.243V582.344H1329.24V132.344Z" fill="white"/>
</mask>
<g mask="url(#mask26_54_3482)">
<path d="M1058.72 231.833C1071.97 218.581 1071.97 197.095 1058.72 183.843C1045.47 170.591 1023.98 170.591 1010.73 183.843C997.475 197.095 997.475 218.581 1010.73 231.833C1023.98 245.086 1045.47 245.086 1058.72 231.833Z" fill="#A52422"/>
<path d="M1034.73 200.538C1034.73 200.538 1037.09 196.886 1041.76 196.886C1045.92 196.886 1048.78 200.635 1048.78 205.002C1048.78 210.056 1044.87 216.036 1034.73 221.234C1024.58 216.037 1020.67 210.056 1020.67 205.002C1020.67 200.635 1023.54 196.886 1027.7 196.886C1032.37 196.886 1034.73 200.538 1034.73 200.538Z" fill="white"/>
</g>
<mask id="mask27_54_3482" style="mask-type:luminance" maskUnits="userSpaceOnUse" x="320" y="86" width="1074" height="695">
<path d="M1275.15 86.3721L320 346.643L438.305 780.803L1393.46 520.532L1275.15 86.3721Z" fill="white"/>
</mask>
<g mask="url(#mask27_54_3482)">
<path d="M1132.67 320.061C1137.45 318.76 1140.26 313.833 1138.96 309.058C1137.66 304.283 1132.73 301.466 1127.96 302.768C1123.18 304.069 1120.37 308.995 1121.67 313.77C1122.97 318.546 1127.9 321.362 1132.67 320.061Z" fill="#A52422"/>
</g>
<mask id="mask28_54_3482" style="mask-type:luminance" maskUnits="userSpaceOnUse" x="339" y="132" width="991" height="451">
<path d="M1329.24 132.344H339.243V582.344H1329.24V132.344Z" fill="white"/>
</mask>
<g mask="url(#mask28_54_3482)">
<path d="M1140.56 330.468C1140.56 332.181 1139.17 333.57 1137.46 333.57C1135.74 333.57 1134.35 332.181 1134.35 330.468C1134.35 328.755 1135.74 327.366 1137.46 327.366C1139.17 327.365 1140.56 328.754 1140.56 330.468Z" fill="#080F0F"/>
</g>
<mask id="mask29_54_3482" style="mask-type:luminance" maskUnits="userSpaceOnUse" x="339" y="132" width="991" height="451">
<path d="M1329.24 132.344H339.243V582.344H1329.24V132.344Z" fill="white"/>
</mask>
<g mask="url(#mask29_54_3482)">
<path d="M981.257 230.74C986.872 230.74 991.425 226.187 991.425 220.572C991.425 214.956 986.872 210.404 981.257 210.404C975.641 210.404 971.089 214.956 971.089 220.572C971.089 226.187 975.641 230.74 981.257 230.74Z" fill="#A52422"/>
</g>
<mask id="mask30_54_3482" style="mask-type:luminance" maskUnits="userSpaceOnUse" x="339" y="132" width="991" height="451">
<path d="M1329.24 132.344H339.243V582.344H1329.24V132.344Z" fill="white"/>
</mask>
<g mask="url(#mask30_54_3482)">
<path d="M1085.87 244.182C1092.72 244.182 1098.28 238.626 1098.28 231.774C1098.28 224.921 1092.72 219.366 1085.87 219.366C1079.02 219.366 1073.46 224.921 1073.46 231.774C1073.46 238.626 1079.02 244.182 1085.87 244.182Z" fill="#EFF2C0"/>
</g>
<mask id="mask31_54_3482" style="mask-type:luminance" maskUnits="userSpaceOnUse" x="339" y="132" width="991" height="451">
<path d="M1329.24 132.344H339.243V582.344H1329.24V132.344Z" fill="white"/>
</mask>
<g mask="url(#mask31_54_3482)">
<path d="M1083.8 256.419C1083.8 258.228 1082.33 259.694 1080.53 259.694C1078.72 259.694 1077.25 258.228 1077.25 256.419C1077.25 254.611 1078.72 253.145 1080.53 253.145C1082.34 253.145 1083.8 254.61 1083.8 256.419Z" fill="#EFF2C0"/>
</g>
<mask id="mask32_54_3482" style="mask-type:luminance" maskUnits="userSpaceOnUse" x="349" y="-22" width="1088" height="795">
<path d="M1263.81 -21.9999L349.148 356.873L521.363 772.628L1436.02 393.755L1263.81 -21.9999Z" fill="white"/>
</mask>
<g mask="url(#mask32_54_3482)">
<path d="M913.701 232.016C920.501 229.199 923.731 221.403 920.914 214.602C918.097 207.801 910.3 204.572 903.499 207.389C896.699 210.206 893.469 218.003 896.286 224.803C899.103 231.604 906.9 234.833 913.701 232.016Z" fill="#EFF2C0"/>
</g>
<mask id="mask33_54_3482" style="mask-type:luminance" maskUnits="userSpaceOnUse" x="339" y="132" width="991" height="451">
<path d="M1329.24 132.344H339.243V582.344H1329.24V132.344Z" fill="white"/>
</mask>
<g mask="url(#mask33_54_3482)">
<path d="M910.426 244.068C910.426 241.53 908.369 239.472 905.83 239.472C903.291 239.472 901.234 241.53 901.234 244.068C901.234 246.606 903.292 248.664 905.83 248.664C908.368 248.664 910.426 246.606 910.426 244.068Z" fill="#79D1D4"/>
</g>
<mask id="mask34_54_3482" style="mask-type:luminance" maskUnits="userSpaceOnUse" x="379" y="144" width="990" height="450">
<path d="M1369 144H379V594H1369V144Z" fill="white"/>
</mask>
<g mask="url(#mask34_54_3482)">
<path d="M934.557 204.252C934.557 206.282 936.203 207.929 938.234 207.929C940.265 207.929 941.911 206.283 941.911 204.252C941.911 202.221 940.265 200.575 938.234 200.575C936.203 200.575 934.557 202.221 934.557 204.252Z" fill="#79D1D4"/>
</g>
<mask id="mask35_54_3482" style="mask-type:luminance" maskUnits="userSpaceOnUse" x="607" y="48" width="990" height="450">
<path d="M1597 48H607V498H1597V48Z" fill="white"/>
</mask>
<g mask="url(#mask35_54_3482)">
<path d="M1551.63 380.912V432.585C1551.63 442.606 1543.48 450.754 1533.46 450.754H1520.15C1518.07 450.754 1516.35 449.059 1516.35 446.958C1516.35 444.858 1518.07 443.162 1520.15 443.162H1533.46C1539.3 443.162 1544.04 438.405 1544.04 432.585V380.912C1544.04 362.794 1529.28 348.015 1511.17 348.015H1176.2C1158.06 348.015 1143.3 362.793 1143.3 380.912V432.585C1143.3 438.405 1148.06 443.162 1153.88 443.162H1167.19C1169.29 443.162 1170.99 444.857 1170.99 446.958C1170.99 449.058 1169.29 450.754 1167.19 450.754H1153.88C1143.86 450.754 1135.71 442.606 1135.71 432.585V380.912C1135.71 358.593 1153.88 340.424 1176.2 340.424H1511.17C1533.48 340.423 1551.63 358.592 1551.63 380.912Z" fill="#080F0F"/>
<path d="M1211.02 381.324C1203.03 371.609 1195.28 370.64 1195.52 364.946C1188.49 381.906 1211.28 382.412 1215.35 387.669L1211.02 381.324Z" fill="white"/>
<path d="M1212.12 380.019C1212.84 369.186 1225.08 363.492 1225.69 361.554C1227.99 377.302 1215.37 381.15 1212.12 380.019Z" fill="white"/>
<path d="M1475.6 381.324C1483.6 371.609 1491.35 370.64 1491.11 364.946C1498.13 381.906 1475.35 382.412 1471.28 387.669L1475.6 381.324Z" fill="white"/>
<path d="M1474.51 380.019C1473.78 369.186 1461.55 363.492 1460.94 361.554C1458.64 377.302 1471.25 381.15 1474.51 380.019Z" fill="white"/>
<path d="M1514.73 421.223H1172.63V472.694H1514.73V421.223Z" fill="#A52422"/>
<path d="M1514.73 421.224C1522.58 427.454 1527.16 436.932 1527.16 446.959C1527.16 456.986 1522.58 466.463 1514.73 472.693V421.224Z" fill="#A52422"/>
<path d="M1172.62 421.224C1164.77 427.454 1160.19 436.932 1160.19 446.959C1160.19 456.986 1164.77 466.463 1172.62 472.693V421.224Z" fill="#A52422"/>
<path d="M1514.73 421.223V472.694H1172.63V453.285C1282.46 405.281 1322.59 498.176 1466.02 444.049C1484.72 436.989 1498.92 429.296 1509.42 421.224H1514.73V421.223Z" fill="#080F0F"/>
<path d="M1143.3 395.589H1135.71V415.631H1143.3V395.589Z" fill="#A52422"/>
<path d="M1551.63 395.589H1544.04V415.631H1551.63V395.589Z" fill="#A52422"/>
<path d="M1373.56 409.958V405.44C1373.56 404.578 1372.86 403.879 1372 403.879H1314.63C1313.77 403.879 1313.07 404.578 1313.07 405.44V409.958C1313.07 410.82 1313.77 411.52 1314.63 411.52H1372C1372.86 411.52 1373.56 410.821 1373.56 409.958Z" fill="#FBFBFB"/>
<path d="M1368.13 421.223L1370.2 411.52H1316.42L1318.49 421.223H1368.13Z" fill="#A52422"/>
<path d="M1431.52 409.958V405.44C1431.52 404.578 1430.82 403.879 1429.96 403.879H1388.26C1387.39 403.879 1386.7 404.578 1386.7 405.44V409.958C1386.7 410.82 1387.39 411.52 1388.26 411.52H1429.96C1430.82 411.52 1431.52 410.821 1431.52 409.958Z" fill="#FBFBFB"/>
<path d="M1427.5 421.223L1429.03 411.52H1389.18L1390.71 421.223H1427.5Z" fill="#A52422"/>
<path d="M1255.11 409.958V405.44C1255.11 404.578 1255.81 403.879 1256.67 403.879H1298.37C1299.23 403.879 1299.93 404.578 1299.93 405.44V409.958C1299.93 410.82 1299.23 411.52 1298.37 411.52H1256.67C1255.81 411.52 1255.11 410.821 1255.11 409.958Z" fill="#FBFBFB"/>
<path d="M1259.13 421.223L1257.59 411.52H1297.44L1295.91 421.223H1259.13Z" fill="#A52422"/>
<path d="M1344.89 395.89C1344.73 395.89 1344.57 395.863 1344.42 395.801C1343.77 395.544 1343.45 394.81 1343.71 394.16C1345.05 390.772 1343.44 389.702 1339.96 387.792C1336.31 385.785 1331.32 383.037 1333.74 374.883C1335.55 368.809 1339 366.184 1341.77 364.076C1345.38 361.323 1347.38 359.806 1344.27 352.093C1344.01 351.446 1344.32 350.709 1344.97 350.447C1345.62 350.188 1346.35 350.499 1346.62 351.149C1350.45 360.651 1347.13 363.171 1343.3 366.09C1340.69 368.074 1337.74 370.32 1336.17 375.604C1334.32 381.802 1337.5 383.551 1341.18 385.575C1344.35 387.315 1348.28 389.477 1346.06 395.089C1345.87 395.586 1345.39 395.89 1344.89 395.89Z" fill="white"/>
<path d="M1338.15 371.243C1349.98 362.524 1356.52 373.548 1365.24 364.947C1361.6 385.904 1348.97 368.818 1338.15 371.243Z" fill="white"/>
<path d="M1334.35 373.123C1337.26 353.196 1314.24 371.609 1312.18 356.466C1301.64 380.937 1334.11 365.672 1334.35 373.123Z" fill="white"/>
<path d="M1495.96 409.958V405.44C1495.96 404.578 1495.27 403.879 1494.4 403.879H1452.7C1451.84 403.879 1451.14 404.578 1451.14 405.44V409.958C1451.14 410.82 1451.84 411.52 1452.7 411.52H1494.4C1495.27 411.52 1495.96 410.821 1495.96 409.958Z" fill="#FBFBFB"/>
<path d="M1491.95 421.223L1493.48 411.52H1453.63L1455.16 421.223H1491.95Z" fill="#A52422"/>
<path d="M1190.66 409.958V405.44C1190.66 404.578 1191.36 403.879 1192.22 403.879H1233.92C1234.78 403.879 1235.48 404.578 1235.48 405.44V409.958C1235.48 410.82 1234.78 411.52 1233.92 411.52H1192.22C1191.36 411.52 1190.66 410.821 1190.66 409.958Z" fill="#FBFBFB"/>
<path d="M1194.68 421.223L1193.15 411.52H1233L1231.47 421.223H1194.68Z" fill="#A52422"/>
<path d="M1408.97 395.285C1408.48 395.285 1408.01 394.993 1407.81 394.509C1403.22 383.599 1407.64 377.453 1411.54 372.031C1415.3 366.807 1418.55 362.295 1413.92 353.929C1413.58 353.316 1413.81 352.548 1414.42 352.209C1415.03 351.876 1415.8 352.09 1416.14 352.703C1421.54 362.469 1417.5 368.081 1413.6 373.508C1409.74 378.866 1406.1 383.924 1410.14 393.53C1410.41 394.173 1410.11 394.914 1409.46 395.186C1409.3 395.253 1409.14 395.285 1408.97 395.285Z" fill="white"/>
<path d="M1277.65 395.285C1278.15 395.285 1278.62 394.993 1278.82 394.509C1283.41 383.599 1278.98 377.453 1275.08 372.031C1271.32 366.807 1268.08 362.295 1272.7 353.929C1273.04 353.316 1272.82 352.548 1272.21 352.209C1271.6 351.876 1270.83 352.09 1270.49 352.703C1265.09 362.469 1269.12 368.081 1273.03 373.508C1276.88 378.866 1280.52 383.924 1276.49 393.53C1276.22 394.173 1276.52 394.914 1277.16 395.186C1277.32 395.253 1277.49 395.285 1277.65 395.285Z" fill="white"/>
<path d="M1413.6 373.508C1424.72 363.492 1433.56 370.397 1435.86 373.122C1426.42 381.179 1415.65 374.986 1413.6 373.508Z" fill="white"/>
<path d="M1273.03 373.508C1261.91 363.492 1253.06 370.397 1250.76 373.122C1260.21 381.179 1270.97 374.986 1273.03 373.508Z" fill="white"/>
<path d="M1406.95 379.836C1404.97 364.704 1389.18 366.036 1389.18 366.036C1389.18 366.036 1393.41 381.886 1406.95 379.836Z" fill="white"/>
<path d="M1279.68 379.836C1281.65 364.704 1297.45 366.036 1297.45 366.036C1297.45 366.036 1293.21 381.886 1279.68 379.836Z" fill="white"/>
<path d="M1411.54 372.031C1414.79 362.645 1403.88 359.495 1403.88 359.495C1403.88 359.495 1404.24 367.97 1411.54 372.031Z" fill="white"/>
<path d="M1275.08 372.031C1271.84 362.645 1282.74 359.495 1282.74 359.495C1282.74 359.495 1282.39 367.97 1275.08 372.031Z" fill="white"/>
<path d="M1473.55 396.854C1473.03 396.854 1472.53 396.522 1472.36 395.996C1469.73 388.264 1472.09 382.961 1474.17 378.283C1476.14 373.845 1477.7 370.338 1474.44 365.67C1466.62 354.463 1477.79 344.24 1477.91 344.139C1478.42 343.672 1479.22 343.714 1479.69 344.235C1480.16 344.754 1480.11 345.555 1479.6 346.021C1479.2 346.377 1469.99 354.863 1476.52 364.222C1480.59 370.061 1478.5 374.764 1476.48 379.311C1474.49 383.774 1472.44 388.388 1474.75 395.181C1474.98 395.843 1474.62 396.562 1473.96 396.787C1473.82 396.832 1473.69 396.854 1473.55 396.854Z" fill="white"/>
<path d="M1213.07 396.854C1213.6 396.854 1214.09 396.522 1214.27 395.996C1216.9 388.264 1214.54 382.961 1212.46 378.283C1210.49 373.845 1208.93 370.338 1212.19 365.67C1220 354.463 1208.84 344.24 1208.72 344.139C1208.2 343.672 1207.4 343.714 1206.94 344.235C1206.47 344.754 1206.51 345.555 1207.03 346.021C1207.43 346.377 1216.64 354.863 1210.11 364.222C1206.04 370.061 1208.13 374.764 1210.15 379.311C1212.13 383.774 1214.19 388.388 1211.87 395.181C1211.65 395.843 1212 396.562 1212.67 396.787C1212.8 396.832 1212.94 396.854 1213.07 396.854Z" fill="white"/>
<path d="M1351.6 356.466H1335.75C1332.55 356.466 1329.95 353.869 1329.95 350.664V306.462C1329.95 303.258 1332.55 300.661 1335.75 300.661H1351.6C1354.81 300.661 1357.41 303.258 1357.41 306.462V350.664C1357.41 353.869 1354.81 356.466 1351.6 356.466Z" fill="#A52422"/>
<path d="M1351.6 352.59H1335.75C1335.22 352.59 1334.74 352.379 1334.39 352.026C1334.04 351.673 1333.82 351.197 1333.82 350.664V306.462C1333.82 305.929 1334.03 305.453 1334.39 305.101C1334.74 304.749 1335.22 304.537 1335.75 304.537H1351.6C1352.14 304.537 1352.61 304.749 1352.97 305.101C1353.32 305.453 1353.53 305.93 1353.53 306.462V350.664C1353.53 351.197 1353.32 351.673 1352.97 352.026C1352.61 352.378 1352.14 352.59 1351.6 352.59Z" fill="#0F1241"/>
<path d="M1349.49 317.257C1349.49 320.469 1346.89 323.072 1343.68 323.072C1340.47 323.072 1337.86 320.469 1337.86 317.257C1337.86 314.046 1340.46 311.443 1343.68 311.443C1346.89 311.442 1349.49 314.045 1349.49 317.257Z" fill="white"/>
<path d="M1348.04 330.017H1339.32C1338.52 330.017 1337.86 329.363 1337.86 328.564V328.563C1337.86 327.764 1338.52 327.11 1339.32 327.11H1348.04C1348.84 327.11 1349.49 327.764 1349.49 328.563V328.564C1349.49 329.363 1348.84 330.017 1348.04 330.017Z" fill="#A52422"/>
<path d="M1348.04 335.415H1339.32C1338.52 335.415 1337.86 334.76 1337.86 333.961C1337.86 333.162 1338.52 332.508 1339.32 332.508H1348.04C1348.84 332.508 1349.49 333.162 1349.49 333.961C1349.49 334.76 1348.84 335.415 1348.04 335.415Z" fill="#A52422"/>
<path d="M1348.04 340.812H1339.32C1338.52 340.812 1337.86 340.158 1337.86 339.358C1337.86 338.558 1338.52 337.905 1339.32 337.905H1348.04C1348.84 337.905 1349.49 338.559 1349.49 339.358C1349.49 340.158 1348.84 340.812 1348.04 340.812Z" fill="#A52422"/>
<path d="M1348.04 346.209H1339.32C1338.52 346.209 1337.86 345.555 1337.86 344.755C1337.86 343.955 1338.52 343.302 1339.32 343.302H1348.04C1348.84 343.302 1349.49 343.956 1349.49 344.755C1349.49 345.555 1348.84 346.209 1348.04 346.209Z" fill="#A52422"/>
<path d="M1417.57 356.466H1401.71C1398.51 356.466 1395.91 353.869 1395.91 350.664V306.462C1395.91 303.258 1398.51 300.661 1401.71 300.661H1417.57C1420.77 300.661 1423.37 303.258 1423.37 306.462V350.664C1423.37 353.869 1420.77 356.466 1417.57 356.466Z" fill="#A52422"/>
<path d="M1417.57 352.59H1401.71C1401.18 352.59 1400.7 352.379 1400.35 352.026C1400 351.673 1399.79 351.197 1399.79 350.664V306.462C1399.79 305.929 1400 305.453 1400.35 305.101C1400.7 304.749 1401.18 304.537 1401.71 304.537H1417.57C1418.1 304.537 1418.58 304.749 1418.93 305.101C1419.28 305.453 1419.49 305.93 1419.49 306.462V350.664C1419.49 351.197 1419.28 351.673 1418.93 352.026C1418.58 352.378 1418.1 352.59 1417.57 352.59Z" fill="#0F1241"/>
<path d="M1415.45 317.257C1415.45 320.469 1412.85 323.072 1409.64 323.072C1406.43 323.072 1403.82 320.469 1403.82 317.257C1403.82 314.046 1406.43 311.443 1409.64 311.443C1412.85 311.442 1415.45 314.045 1415.45 317.257Z" fill="white"/>
<path d="M1414 330.017H1405.28C1404.48 330.017 1403.83 329.363 1403.83 328.564V328.563C1403.83 327.764 1404.48 327.11 1405.28 327.11H1414C1414.8 327.11 1415.46 327.764 1415.46 328.563V328.564C1415.45 329.363 1414.8 330.017 1414 330.017Z" fill="#A52422"/>
<path d="M1414 335.415H1405.28C1404.48 335.415 1403.83 334.76 1403.83 333.961C1403.83 333.162 1404.48 332.508 1405.28 332.508H1414C1414.8 332.508 1415.46 333.162 1415.46 333.961C1415.45 334.76 1414.8 335.415 1414 335.415Z" fill="#A52422"/>
<path d="M1414 340.812H1405.28C1404.48 340.812 1403.83 340.158 1403.83 339.358C1403.83 338.558 1404.48 337.905 1405.28 337.905H1414C1414.8 337.905 1415.46 338.559 1415.46 339.358C1415.45 340.158 1414.8 340.812 1414 340.812Z" fill="#A52422"/>
<path d="M1414 346.209H1405.28C1404.48 346.209 1403.83 345.555 1403.83 344.755C1403.83 343.955 1404.48 343.302 1405.28 343.302H1414C1414.8 343.302 1415.46 343.956 1415.46 344.755C1415.45 345.555 1414.8 346.209 1414 346.209Z" fill="#A52422"/>
<path d="M1269.06 356.466H1284.91C1288.12 356.466 1290.72 353.869 1290.72 350.664V306.462C1290.72 303.258 1288.12 300.661 1284.91 300.661H1269.06C1265.85 300.661 1263.26 303.258 1263.26 306.462V350.664C1263.26 353.869 1265.85 356.466 1269.06 356.466Z" fill="#A52422"/>
<path d="M1269.06 352.59H1284.91C1285.45 352.59 1285.92 352.379 1286.28 352.026C1286.63 351.673 1286.84 351.197 1286.84 350.664V306.462C1286.84 305.929 1286.63 305.453 1286.28 305.101C1285.92 304.749 1285.45 304.537 1284.91 304.537H1269.06C1268.53 304.537 1268.05 304.749 1267.7 305.101C1267.35 305.453 1267.13 305.93 1267.13 306.462V350.664C1267.13 351.197 1267.34 351.673 1267.7 352.026C1268.05 352.378 1268.53 352.59 1269.06 352.59Z" fill="#0F1241"/>
<path d="M1271.17 317.257C1271.17 320.469 1273.77 323.072 1276.99 323.072C1280.2 323.072 1282.8 320.469 1282.8 317.257C1282.8 314.046 1280.2 311.443 1276.99 311.443C1273.77 311.442 1271.17 314.045 1271.17 317.257Z" fill="white"/>
<path d="M1272.62 330.017H1281.35C1282.15 330.017 1282.8 329.363 1282.8 328.564V328.563C1282.8 327.764 1282.15 327.11 1281.35 327.11H1272.62C1271.83 327.11 1271.17 327.764 1271.17 328.563V328.564C1271.17 329.363 1271.83 330.017 1272.62 330.017Z" fill="#A52422"/>
<path d="M1272.62 335.415H1281.35C1282.15 335.415 1282.8 334.76 1282.8 333.961C1282.8 333.162 1282.15 332.508 1281.35 332.508H1272.62C1271.83 332.508 1271.17 333.162 1271.17 333.961C1271.17 334.76 1271.83 335.415 1272.62 335.415Z" fill="#A52422"/>
<path d="M1272.62 340.812H1281.35C1282.15 340.812 1282.8 340.158 1282.8 339.358C1282.8 338.558 1282.15 337.905 1281.35 337.905H1272.62C1271.83 337.905 1271.17 338.559 1271.17 339.358C1271.17 340.158 1271.83 340.812 1272.62 340.812Z" fill="#A52422"/>
<path d="M1272.62 346.209H1281.35C1282.15 346.209 1282.8 345.555 1282.8 344.755C1282.8 343.955 1282.15 343.302 1281.35 343.302H1272.62C1271.83 343.302 1271.17 343.956 1271.17 344.755C1271.17 345.555 1271.83 346.209 1272.62 346.209Z" fill="#A52422"/>
<path d="M1483.53 356.466H1467.67C1464.47 356.466 1461.87 353.869 1461.87 350.664V306.462C1461.87 303.258 1464.47 300.661 1467.67 300.661H1483.53C1486.74 300.661 1489.33 303.258 1489.33 306.462V350.664C1489.33 353.869 1486.74 356.466 1483.53 356.466Z" fill="#A52422"/>
<path d="M1483.53 352.59H1467.67C1467.14 352.59 1466.67 352.379 1466.31 352.026C1465.96 351.673 1465.75 351.197 1465.75 350.664V306.462C1465.75 305.929 1465.96 305.453 1466.31 305.101C1466.67 304.749 1467.14 304.537 1467.67 304.537H1483.53C1484.06 304.537 1484.54 304.749 1484.89 305.101C1485.24 305.453 1485.46 305.93 1485.46 306.462V350.664C1485.46 351.197 1485.25 351.673 1484.89 352.026C1484.54 352.378 1484.06 352.59 1483.53 352.59Z" fill="#0F1241"/>
<path d="M1481.42 317.257C1481.42 320.469 1478.81 323.072 1475.6 323.072C1472.39 323.072 1469.79 320.469 1469.79 317.257C1469.79 314.046 1472.39 311.443 1475.6 311.443C1478.81 311.442 1481.42 314.045 1481.42 317.257Z" fill="white"/>
<path d="M1479.96 330.017H1471.24C1470.44 330.017 1469.79 329.363 1469.79 328.564V328.563C1469.79 327.764 1470.44 327.11 1471.24 327.11H1479.96C1480.76 327.11 1481.42 327.764 1481.42 328.563V328.564C1481.42 329.363 1480.76 330.017 1479.96 330.017Z" fill="#A52422"/>
<path d="M1479.96 335.415H1471.24C1470.44 335.415 1469.79 334.76 1469.79 333.961C1469.79 333.162 1470.44 332.508 1471.24 332.508H1479.96C1480.76 332.508 1481.42 333.162 1481.42 333.961C1481.42 334.76 1480.76 335.415 1479.96 335.415Z" fill="#A52422"/>
<path d="M1479.96 340.812H1471.24C1470.44 340.812 1469.79 340.158 1469.79 339.358C1469.79 338.558 1470.44 337.905 1471.24 337.905H1479.96C1480.76 337.905 1481.42 338.559 1481.42 339.358C1481.42 340.158 1480.76 340.812 1479.96 340.812Z" fill="#A52422"/>
<path d="M1479.96 346.209H1471.24C1470.44 346.209 1469.79 345.555 1469.79 344.755C1469.79 343.955 1470.44 343.302 1471.24 343.302H1479.96C1480.76 343.302 1481.42 343.956 1481.42 344.755C1481.42 345.555 1480.76 346.209 1479.96 346.209Z" fill="#A52422"/>
<path d="M1203.1 356.466H1218.95C1222.16 356.466 1224.75 353.869 1224.75 350.664V306.462C1224.75 303.258 1222.16 300.661 1218.95 300.661H1203.1C1199.89 300.661 1197.29 303.258 1197.29 306.462V350.664C1197.29 353.869 1199.89 356.466 1203.1 356.466Z" fill="#A52422"/>
<path d="M1203.1 352.59H1218.95C1219.48 352.59 1219.96 352.379 1220.31 352.026C1220.67 351.673 1220.88 351.197 1220.88 350.664V306.462C1220.88 305.929 1220.67 305.453 1220.31 305.101C1219.96 304.749 1219.48 304.537 1218.95 304.537H1203.1C1202.56 304.537 1202.09 304.749 1201.73 305.101C1201.38 305.453 1201.17 305.93 1201.17 306.462V350.664C1201.17 351.197 1201.38 351.673 1201.73 352.026C1202.09 352.378 1202.56 352.59 1203.1 352.59Z" fill="#0F1241"/>
<path d="M1205.21 317.257C1205.21 320.469 1207.81 323.072 1211.02 323.072C1214.23 323.072 1216.84 320.469 1216.84 317.257C1216.84 314.046 1214.23 311.443 1211.02 311.443C1207.81 311.442 1205.21 314.045 1205.21 317.257Z" fill="white"/>
<path d="M1206.66 330.017H1215.38C1216.18 330.017 1216.84 329.363 1216.84 328.564V328.563C1216.84 327.764 1216.18 327.11 1215.38 327.11H1206.66C1205.86 327.11 1205.21 327.764 1205.21 328.563V328.564C1205.21 329.363 1205.86 330.017 1206.66 330.017Z" fill="#A52422"/>
<path d="M1206.66 335.415H1215.38C1216.18 335.415 1216.84 334.76 1216.84 333.961C1216.84 333.162 1216.18 332.508 1215.38 332.508H1206.66C1205.86 332.508 1205.21 333.162 1205.21 333.961C1205.21 334.76 1205.86 335.415 1206.66 335.415Z" fill="#A52422"/>
<path d="M1206.66 340.812H1215.38C1216.18 340.812 1216.84 340.158 1216.84 339.358C1216.84 338.558 1216.18 337.905 1215.38 337.905H1206.66C1205.86 337.905 1205.21 338.559 1205.21 339.358C1205.21 340.158 1205.86 340.812 1206.66 340.812Z" fill="#A52422"/>
<path d="M1206.66 346.209H1215.38C1216.18 346.209 1216.84 345.555 1216.84 344.755C1216.84 343.955 1216.18 343.302 1215.38 343.302H1206.66C1205.86 343.302 1205.21 343.956 1205.21 344.755C1205.21 345.555 1205.86 346.209 1206.66 346.209Z" fill="#A52422"/>
<path d="M1353.53 289.855C1353.42 289.855 1353.31 289.824 1353.21 289.759C1347.42 285.942 1339.93 285.942 1334.15 289.759C1333.88 289.938 1333.51 289.863 1333.34 289.594C1333.16 289.324 1333.23 288.962 1333.5 288.786C1339.68 284.713 1347.67 284.713 1353.85 288.786C1354.12 288.963 1354.2 289.324 1354.02 289.594C1353.91 289.763 1353.72 289.855 1353.53 289.855Z" fill="white"/>
<path d="M1358.07 282.968C1357.96 282.968 1357.84 282.937 1357.75 282.872C1353.56 280.113 1348.69 278.655 1343.68 278.655C1338.66 278.655 1333.8 280.113 1329.61 282.872C1329.34 283.048 1328.98 282.975 1328.8 282.707C1328.62 282.438 1328.7 282.076 1328.96 281.899C1333.34 279.014 1338.43 277.489 1343.68 277.489C1348.92 277.489 1354.01 279.014 1358.39 281.899C1358.66 282.076 1358.73 282.438 1358.55 282.707C1358.44 282.876 1358.26 282.968 1358.07 282.968Z" fill="white"/>
<path d="M1362.6 276.082C1362.49 276.082 1362.38 276.051 1362.28 275.985C1356.74 272.335 1350.31 270.406 1343.68 270.406C1337.04 270.406 1330.61 272.335 1325.07 275.985C1324.8 276.163 1324.44 276.091 1324.26 275.82C1324.08 275.55 1324.16 275.189 1324.43 275.012C1330.16 271.236 1336.81 269.241 1343.68 269.241C1350.54 269.241 1357.2 271.237 1362.93 275.012C1363.19 275.189 1363.27 275.551 1363.09 275.82C1362.98 275.99 1362.79 276.082 1362.6 276.082Z" fill="white"/>
<path d="M1367.14 269.195C1367.03 269.195 1366.92 269.164 1366.82 269.099C1359.93 264.561 1351.93 262.161 1343.68 262.161C1335.42 262.161 1327.42 264.561 1320.53 269.099C1320.27 269.278 1319.9 269.205 1319.72 268.934C1319.55 268.665 1319.62 268.303 1319.89 268.126C1326.97 263.46 1335.2 260.995 1343.68 260.995C1352.16 260.995 1360.38 263.46 1367.46 268.126C1367.73 268.303 1367.8 268.665 1367.63 268.934C1367.52 269.102 1367.33 269.195 1367.14 269.195Z" fill="white"/>
<path d="M1258.88 403.879C1268.81 388.326 1287.83 387.934 1296.43 403.879H1258.88Z" fill="#A52422"/>
<path d="M1194.43 403.879C1204.36 388.326 1223.38 387.934 1231.98 403.879H1194.43Z" fill="#A52422"/>
<path d="M1366.77 403.879C1366.77 393.011 1356.11 391.719 1352.4 396.726C1347.71 389.781 1338.83 390.865 1334.47 397.372C1327.36 388.326 1318.64 398.111 1321.39 403.879H1366.77Z" fill="#A52422"/>
<path d="M1427.75 403.879C1417.82 388.326 1398.8 387.934 1390.2 403.879H1427.75Z" fill="#A52422"/>
<path d="M1492.2 403.879C1482.26 388.326 1463.24 387.934 1454.64 403.879H1492.2Z" fill="#A52422"/>
<path d="M1215.37 427.212C1215.37 428.484 1214.34 429.514 1213.07 429.514C1211.8 429.514 1210.77 428.484 1210.77 427.212C1210.77 425.941 1211.8 424.91 1213.07 424.91C1214.34 424.911 1215.37 425.942 1215.37 427.212Z" fill="#080F0F"/>
<path d="M1279.82 427.212C1279.82 428.484 1278.79 429.514 1277.52 429.514C1276.25 429.514 1275.22 428.484 1275.22 427.212C1275.22 425.941 1276.25 424.91 1277.52 424.91C1278.79 424.911 1279.82 425.942 1279.82 427.212Z" fill="#080F0F"/>
<path d="M1345.61 427.212C1345.61 428.484 1344.58 429.514 1343.31 429.514C1342.04 429.514 1341.01 428.484 1341.01 427.212C1341.01 425.941 1342.04 424.91 1343.31 424.91C1344.58 424.911 1345.61 425.942 1345.61 427.212Z" fill="#080F0F"/>
<path d="M1411.41 427.212C1411.41 428.484 1410.38 429.514 1409.11 429.514C1407.83 429.514 1406.8 428.484 1406.8 427.212C1406.8 425.941 1407.83 424.91 1409.11 424.91C1410.38 424.911 1411.41 425.942 1411.41 427.212Z" fill="#080F0F"/>
<path d="M1475.85 427.212C1475.85 428.484 1474.82 429.514 1473.55 429.514C1472.28 429.514 1471.25 428.484 1471.25 427.212C1471.25 425.941 1472.28 424.91 1473.55 424.91C1474.82 424.911 1475.85 425.942 1475.85 427.212Z" fill="#080F0F"/>
<path d="M1319.2 472.693H1197.66C1233.01 453.461 1281.62 452.146 1319.2 472.693Z" fill="#A52422"/>
<path d="M1514.73 447.49V472.694H1483.58C1501.7 467.278 1510.48 456.624 1514.73 447.49Z" fill="#A52422"/>
<path d="M1195.02 434.128C1195.76 436.184 1192.81 439.133 1188.43 440.714C1184.05 442.296 1179.9 441.912 1179.15 439.856C1178.41 437.8 1181.36 434.852 1185.74 433.27C1190.12 431.688 1194.28 432.072 1195.02 434.128Z" fill="white"/>
<path d="M1200.89 432.26C1200.89 433.33 1200.02 434.198 1198.95 434.198C1197.88 434.198 1197.01 433.33 1197.01 432.26C1197.01 431.19 1197.88 430.322 1198.95 430.322C1200.02 430.322 1200.89 431.19 1200.89 432.26Z" fill="white"/>
<path d="M1457.07 469.612H1433.12C1432.32 469.612 1431.67 468.958 1431.67 468.158C1431.67 467.359 1432.32 466.705 1433.12 466.705H1457.07C1457.86 466.705 1458.52 467.359 1458.52 468.158C1458.52 468.958 1457.86 469.612 1457.07 469.612Z" fill="#A52422"/>
</g>
<path d="M51 479H0L51 514L51 479Z" fill="#A4BAB7"/>
<path d="M1543 479H1594L1543 514V479Z" fill="#A4BAB7"/>
</svg>
